<svg width="29" height="28" viewBox="0 0 29 28" fill="none" xmlns="http://www.w3.org/2000/svg">
<path d="M22.8416 9.33317C22.638 8.98052 22.3456 8.68728 21.9936 8.48261C21.6416 8.27794 21.2421 8.16896 20.8349 8.1665H17.9999V5.83317C17.9999 5.52375 17.877 5.22701 17.6582 5.00821C17.4394 4.78942 17.1427 4.6665 16.8333 4.6665H5.16659C4.54775 4.6665 3.95425 4.91234 3.51667 5.34992C3.07908 5.78751 2.83325 6.381 2.83325 6.99984V18.6665C2.83367 19.0757 2.94169 19.4776 3.14646 19.8318C3.35123 20.1861 3.64556 20.4802 3.99992 20.6848C3.95815 21.7678 4.34829 22.823 5.08453 23.6183C5.82077 24.4136 6.84278 24.8839 7.92575 24.9257C9.00872 24.9674 10.0639 24.5773 10.8592 23.8411C11.6545 23.1048 12.1248 22.0828 12.1666 20.9998H15.7833C15.9123 21.976 16.3916 22.872 17.1321 23.521C17.8725 24.1701 18.8236 24.5279 19.8083 24.5279C20.7929 24.5279 21.744 24.1701 22.4844 23.521C23.2249 22.872 23.7042 21.976 23.8333 20.9998C24.4521 20.9998 25.0456 20.754 25.4832 20.3164C25.9208 19.8788 26.1666 19.2853 26.1666 18.6665V15.1665C26.1648 14.9537 26.1085 14.7448 26.0033 14.5598L22.8416 9.33317ZM17.9999 10.4998H20.8349L22.9349 13.9998H17.9999V10.4998ZM8.08325 22.1665C7.73713 22.1665 7.39879 22.0639 7.111 21.8716C6.82322 21.6793 6.59892 21.406 6.46646 21.0862C6.33401 20.7664 6.29935 20.4146 6.36688 20.0751C6.4344 19.7356 6.60107 19.4238 6.84581 19.1791C7.09056 18.9343 7.40238 18.7677 7.74184 18.7001C8.08131 18.6326 8.43318 18.6673 8.75295 18.7997C9.07272 18.9322 9.34603 19.1565 9.53832 19.4443C9.73062 19.732 9.83325 20.0704 9.83325 20.4165C9.83325 20.8806 9.64888 21.3258 9.32069 21.6539C8.9925 21.9821 8.54738 22.1665 8.08325 22.1665ZM19.7499 22.1665C19.4038 22.1665 19.0655 22.0639 18.7777 21.8716C18.4899 21.6793 18.2656 21.406 18.1331 21.0862C18.0007 20.7664 17.966 20.4146 18.0335 20.0751C18.1011 19.7356 18.2677 19.4238 18.5125 19.1791C18.7572 18.9343 19.069 18.7677 19.4085 18.7001C19.748 18.6326 20.0998 18.6673 20.4196 18.7997C20.7394 18.9322 21.0127 19.1565 21.205 19.4443C21.3973 19.732 21.4999 20.0704 21.4999 20.4165C21.4999 20.8806 21.3155 21.3258 20.9874 21.6539C20.6592 21.9821 20.214 22.1665 19.7499 22.1665Z" fill="#00BCD3"/>
</svg>
