<svg width="186" height="181" viewBox="0 0 186 181" fill="none" xmlns="http://www.w3.org/2000/svg">
<circle cx="95.4668" cy="91" r="70.5" fill="url(#paint0_linear_1744_20937)"/>
<circle cx="178.433" cy="28" r="7.5" fill="#AA70FF"/>
<circle cx="20" cy="10.5" r="10" fill="#AA70FF"/>
<circle cx="10" cy="133.5" r="5" fill="#AA70FF"/>
<circle cx="165.5" cy="161" r="2.5" fill="#AA70FF"/>
<path fill-rule="evenodd" clip-rule="evenodd" d="M108.481 79.4238C108.481 86.644 102.692 92.4335 95.467 92.4335C88.2442 92.4335 82.4526 86.644 82.4526 79.4238C82.4526 72.2036 88.2442 66.4167 95.467 66.4167C102.692 66.4167 108.481 72.2036 108.481 79.4238ZM95.4665 115.583C84.8031 115.583 75.7998 113.85 75.7998 107.163C75.7998 100.474 84.8597 98.8026 95.4665 98.8026C106.132 98.8026 115.133 100.536 115.133 107.222C115.133 113.912 106.073 115.583 95.4665 115.583Z" fill="white"/>
<circle cx="106.5" cy="5" r="2.5" fill="#AA70FF"/>
<circle cx="62.5" cy="177" r="3.5" fill="#AA70FF"/>
<circle cx="122" cy="171.5" r="1" fill="#AA70FF"/>
<circle cx="170.5" cy="111" r="2.5" fill="#AA70FF"/>
<circle cx="1" cy="75.5" r="1" fill="#AA70FF"/>
<defs>
<linearGradient id="paint0_linear_1744_20937" x1="165.967" y1="161.5" x2="-1.81054" y2="112.855" gradientUnits="userSpaceOnUse">
<stop stop-color="#7210FF"/>
<stop offset="1" stop-color="#9D59FF"/>
</linearGradient>
</defs>
</svg>
