<svg width="32" height="32" viewBox="0 0 32 32" fill="none" xmlns="http://www.w3.org/2000/svg">
<rect width="32" height="32" rx="12" fill="#A54AFF"/>
<path fill-rule="evenodd" clip-rule="evenodd" d="M19.85 6.50065C20.481 6.50065 21.111 6.58965 21.71 6.79065C25.401 7.99065 26.731 12.0406 25.62 15.5806C24.99 17.3896 23.96 19.0406 22.611 20.3896C20.68 22.2596 18.561 23.9196 16.28 25.3496L16.03 25.5006L15.77 25.3396C13.481 23.9196 11.35 22.2596 9.40102 20.3796C8.06102 19.0306 7.03002 17.3896 6.39002 15.5806C5.26002 12.0406 6.59002 7.99065 10.321 6.76965C10.611 6.66965 10.91 6.59965 11.21 6.56065H11.33C11.611 6.51965 11.89 6.50065 12.17 6.50065H12.28C12.91 6.51965 13.52 6.62965 14.111 6.83065H14.17C14.21 6.84965 14.24 6.87065 14.26 6.88965C14.481 6.96065 14.69 7.04065 14.89 7.15065L15.27 7.32065C15.3618 7.36962 15.4649 7.44445 15.554 7.50912C15.6104 7.55009 15.6612 7.58699 15.7 7.61065C15.7163 7.62028 15.7329 7.62996 15.7496 7.63972C15.8354 7.68977 15.9247 7.74191 16 7.79965C17.111 6.95065 18.46 6.49065 19.85 6.50065ZM22.51 13.7006C22.92 13.6896 23.27 13.3606 23.3 12.9396V12.8206C23.33 11.4196 22.481 10.1506 21.19 9.66065C20.78 9.51965 20.33 9.74065 20.18 10.1606C20.04 10.5806 20.26 11.0406 20.68 11.1896C21.321 11.4296 21.75 12.0606 21.75 12.7596V12.7906C21.731 13.0196 21.8 13.2406 21.94 13.4106C22.08 13.5806 22.29 13.6796 22.51 13.7006Z" fill="#FAFAFA"/>
</svg>
