<svg width="25" height="24" viewBox="0 0 25 24" fill="none" xmlns="http://www.w3.org/2000/svg">
<path d="M9.93483 20.7733V17.7156C9.93483 16.9351 10.5722 16.3023 11.3585 16.3023H14.2327C14.6102 16.3023 14.9723 16.4512 15.2393 16.7163C15.5063 16.9813 15.6563 17.3408 15.6563 17.7156V20.7733C15.6539 21.0978 15.7821 21.4099 16.0124 21.6402C16.2427 21.8705 16.5561 22 16.883 22H18.8439C19.7597 22.0023 20.6388 21.6428 21.2872 21.0008C21.9356 20.3588 22.3001 19.487 22.3 18.5778V9.86686C22.3 9.13246 21.9721 8.43584 21.4047 7.96467L14.7341 2.67587C13.5737 1.74856 11.9112 1.7785 10.7854 2.74698L4.26706 7.96467C3.67279 8.42195 3.3176 9.12064 3.30005 9.86686V18.5689C3.30005 20.4639 4.84743 22 6.75622 22H8.67234C9.35128 22 9.90305 21.4562 9.90797 20.7822L9.93483 20.7733Z" fill="#A54AFF"/>
</svg>
