<svg width="18" height="20" viewBox="0 0 18 20" fill="none" xmlns="http://www.w3.org/2000/svg">
<path d="M14.0467 3.05343L13.2183 3.88177L12.39 4.7101L8.68001 1.0001C7.99167 0.3001 6.88334 0.3001 6.20667 0.988434C6.043 1.15012 5.91305 1.34269 5.82436 1.55497C5.73567 1.76726 5.69 1.99503 5.69 2.2251C5.69 2.45517 5.73567 2.68295 5.82436 2.89523C5.91305 3.10751 6.043 3.30008 6.20667 3.46177L9.91667 7.17177L9.08834 8.0001L1.66834 15.4201C0.75834 16.3301 0.75834 17.8118 1.66834 18.7218C2.57834 19.6318 4.06001 19.6318 4.97001 18.7218L15.6917 8.0001C15.7997 8.10811 15.9279 8.19379 16.069 8.25225C16.2102 8.3107 16.3614 8.34079 16.5142 8.34079C16.6669 8.34079 16.8182 8.3107 16.9593 8.25225C17.1004 8.19379 17.2287 8.10811 17.3367 8.0001C17.4447 7.89209 17.5304 7.76386 17.5888 7.62273C17.6473 7.48161 17.6774 7.33035 17.6774 7.1776C17.6774 7.02485 17.6473 6.87359 17.5888 6.73247C17.5304 6.59134 17.4447 6.46311 17.3367 6.3551L14.0467 3.05343Z" fill="#4AAF57"/>
</svg>
