<svg width="20" height="21" viewBox="0 0 20 21" fill="none" xmlns="http://www.w3.org/2000/svg">
<path fill-rule="evenodd" clip-rule="evenodd" d="M14.6021 6.6633V7.94108C16.0374 8.38909 17.0832 9.68841 17.0832 11.2403V15.3544C17.0832 17.2756 15.4904 18.8333 13.5267 18.8333H6.47384C4.5093 18.8333 2.9165 17.2756 2.9165 15.3544V11.2403C2.9165 9.68841 3.96313 8.38909 5.39758 7.94108V6.6633C5.40604 4.17895 7.46373 2.16663 9.98714 2.16663C12.5444 2.16663 14.6021 4.17895 14.6021 6.6633ZM10.0041 3.61583C11.723 3.61583 13.1202 4.98222 13.1202 6.6633V7.76138H6.87944V6.64673C6.88791 4.97394 8.2851 3.61583 10.0041 3.61583ZM10.7408 14.2124C10.7408 14.6182 10.4105 14.9411 9.9956 14.9411C9.58915 14.9411 9.2589 14.6182 9.2589 14.2124V12.374C9.2589 11.9765 9.58915 11.6535 9.9956 11.6535C10.4105 11.6535 10.7408 11.9765 10.7408 12.374V14.2124Z" fill="#757575"/>
</svg>
