<svg width="29" height="28" viewBox="0 0 29 28" fill="none" xmlns="http://www.w3.org/2000/svg">
<path d="M25.8284 23.6718L24.1718 25.3285C23.9532 25.5458 23.6575 25.6678 23.3493 25.6678C23.0411 25.6678 22.7454 25.5458 22.5268 25.3285L8.66678 11.4918C8.28739 11.6017 7.89505 11.6606 7.50011 11.6668C6.7573 11.6663 6.02534 11.4885 5.3651 11.1481C4.70486 10.8077 4.1354 10.3147 3.70408 9.7099C3.27276 9.10513 2.99204 8.40615 2.88525 7.67105C2.77846 6.93595 2.8487 6.18598 3.09011 5.4835L6.05344 8.44683L6.67178 7.8285L8.32844 6.17183L8.94678 5.5535L5.98344 2.59016C6.68593 2.34875 7.4359 2.27852 8.171 2.3853C8.9061 2.49209 9.60508 2.77282 10.2098 3.20414C10.8146 3.63545 11.3077 4.20491 11.648 4.86515C11.9884 5.52539 12.1662 6.25735 12.1668 7.00016C12.1605 7.3951 12.1017 7.78744 11.9918 8.16683L25.8284 22.0268C26.0457 22.2454 26.1677 22.5411 26.1677 22.8493C26.1677 23.1575 26.0457 23.4532 25.8284 23.6718V23.6718ZM3.17178 22.0268C2.95448 22.2454 2.83252 22.5411 2.83252 22.8493C2.83252 23.1575 2.95448 23.4532 3.17178 23.6718L4.82844 25.3285C5.04703 25.5458 5.34273 25.6678 5.65094 25.6678C5.95916 25.6678 6.25485 25.5458 6.47344 25.3285L12.8551 18.9585L9.55344 15.6568L3.17178 22.0268ZM23.8334 2.3335L19.1668 4.66683V7.00016L16.6351 9.53183L18.9684 11.8652L21.5001 9.3335H23.8334L26.1668 4.66683L23.8334 2.3335Z" fill="#FF981F"/>
</svg>
