<svg width="29" height="28" viewBox="0 0 29 28" fill="none" xmlns="http://www.w3.org/2000/svg">
<path d="M19.1667 12.8332H18V3.49984C18 2.2165 16.95 1.1665 15.6667 1.1665H13.3333C12.05 1.1665 11 2.2165 11 3.49984V12.8332H9.83333C6.61333 12.8332 4 15.4465 4 18.6665V26.8332H25V18.6665C25 15.4465 22.3867 12.8332 19.1667 12.8332ZM22.6667 24.4998H20.3333V20.9998C20.3333 20.3582 19.8083 19.8332 19.1667 19.8332C18.525 19.8332 18 20.3582 18 20.9998V24.4998H15.6667V20.9998C15.6667 20.3582 15.1417 19.8332 14.5 19.8332C13.8583 19.8332 13.3333 20.3582 13.3333 20.9998V24.4998H11V20.9998C11 20.3582 10.475 19.8332 9.83333 19.8332C9.19167 19.8332 8.66667 20.3582 8.66667 20.9998V24.4998H6.33333V18.6665C6.33333 16.7415 7.90833 15.1665 9.83333 15.1665H19.1667C21.0917 15.1665 22.6667 16.7415 22.6667 18.6665V24.4998Z" fill="#A54AFF"/>
</svg>
