<svg width="29" height="28" viewBox="0 0 29 28" fill="none" xmlns="http://www.w3.org/2000/svg">
<path d="M3.86011 6.16006V25.0545C3.86011 25.8777 4.55283 26.8801 5.40571 26.8801H24.0078C24.8584 26.8801 25.7001 25.8777 25.7001 25.0545V6.16006H3.86011ZM14.7577 21.1546C11.4761 21.1546 8.81555 18.582 8.81555 15.4073C8.81555 12.2327 11.4761 9.66006 14.7577 9.66006C18.0393 9.66006 20.6999 12.2327 20.6999 15.4073C20.6999 18.5825 18.0393 21.1546 14.7577 21.1546V21.1546ZM24.0078 0.560059H5.40571C4.55283 0.560059 3.86011 1.13854 3.86011 1.96286V5.04006H25.7001V1.96286C25.7001 1.13854 24.8584 0.560059 24.0078 0.560059ZM11.1401 3.92006H4.98011V1.68006H11.1401V3.92006ZM21.8619 3.76326C21.1624 3.76326 20.5974 3.21502 20.5974 2.53798C20.5974 1.86206 21.1624 1.31382 21.8619 1.31382C22.5613 1.31382 23.128 1.86206 23.128 2.53798C23.1275 3.21446 22.5613 3.76326 21.8619 3.76326V3.76326Z" fill="#FFC02D"/>
</svg>
