<svg width="20" height="24" viewBox="0 0 20 24" fill="none" xmlns="http://www.w3.org/2000/svg">
<path d="M16.5001 2.66683V1.50016C16.5001 0.858496 15.9751 0.333496 15.3334 0.333496H1.33341C0.691748 0.333496 0.166748 0.858496 0.166748 1.50016V6.16683C0.166748 6.8085 0.691748 7.3335 1.33341 7.3335H15.3334C15.9751 7.3335 16.5001 6.8085 16.5001 6.16683V5.00016H17.6667V9.66683H7.16675C6.52508 9.66683 6.00008 10.1918 6.00008 10.8335V22.5002C6.00008 23.1418 6.52508 23.6668 7.16675 23.6668H9.50008C10.1417 23.6668 10.6667 23.1418 10.6667 22.5002V12.0002H18.8334C19.4751 12.0002 20.0001 11.4752 20.0001 10.8335V3.8335C20.0001 3.19183 19.4751 2.66683 18.8334 2.66683H16.5001Z" fill="#1A96F0"/>
</svg>
