<svg width="35" height="35" viewBox="0 0 35 35" fill="none" xmlns="http://www.w3.org/2000/svg">
<path fill-rule="evenodd" clip-rule="evenodd" d="M24.3034 2.93175C26.4012 2.80064 28.4699 3.52905 30.0288 4.95674C31.4565 6.51554 32.1849 8.58424 32.0683 10.6966V24.3034C32.1995 26.4158 31.4565 28.4845 30.0433 30.0433C28.4845 31.471 26.4012 32.1994 24.3034 32.0683H10.6965C8.58411 32.1994 6.5154 31.471 4.95658 30.0433C3.52888 28.4845 2.80046 26.4158 2.93158 24.3034V10.6966C2.80046 8.58424 3.52888 6.51554 4.95658 4.95674C6.5154 3.52905 8.58411 2.80064 10.6965 2.93175H24.3034ZM16.0137 24.5656L25.8182 14.732C26.7069 13.8288 26.7069 12.372 25.8182 11.4833L23.9243 9.58945C23.0211 8.68621 21.5642 8.68621 20.661 9.58945L19.6849 10.5801C19.5392 10.7258 19.5392 10.9734 19.6849 11.1191C19.6849 11.1191 22.0013 13.4209 22.045 13.4792C22.2052 13.654 22.3072 13.8871 22.3072 14.1493C22.3072 14.6738 21.8847 15.1108 21.3457 15.1108C21.098 15.1108 20.8649 15.0088 20.7047 14.8486L18.2718 12.4303C18.1552 12.3137 17.9513 12.3137 17.8347 12.4303L10.8856 19.3793C10.4048 19.8601 10.128 20.5011 10.1135 21.1858L10.0261 24.6385C10.0261 24.8278 10.0843 25.0027 10.2154 25.1338C10.3466 25.2649 10.5214 25.3377 10.7108 25.3377H14.1343C14.8336 25.3377 15.5038 25.0609 16.0137 24.5656Z" fill="#A54AFF"/>
</svg>
