<svg width="44" height="35" viewBox="0 0 44 35" fill="none" xmlns="http://www.w3.org/2000/svg">
<g clip-path="url(#clip0_1941_11009)">
<path d="M7.99901 34.0331V31.7694C7.99901 30.9014 7.47067 30.3356 6.56506 30.3356C6.11234 30.3356 5.62181 30.4865 5.28218 30.977C5.01818 30.562 4.64092 30.3356 4.07493 30.3356C3.6975 30.3356 3.3204 30.4487 3.01842 30.8638V30.411H2.22607V34.0331H3.01842V32.0334C3.01842 31.3921 3.35804 31.0901 3.88639 31.0901C4.41439 31.0901 4.67873 31.4297 4.67873 32.0334V34.0331H5.47107V32.0334C5.47107 31.3921 5.84817 31.0901 6.3387 31.0901C6.86704 31.0901 7.13104 31.4297 7.13104 32.0334V34.0331H7.99901ZM19.7331 30.411H18.4504V29.3169H17.658V30.411H16.9412V31.1278H17.6579V32.7881C17.6579 33.6182 17.9975 34.1086 18.9031 34.1086C19.2427 34.1086 19.6198 33.9955 19.8842 33.8446L19.6576 33.1653C19.4313 33.3162 19.1673 33.3541 18.9786 33.3541C18.6013 33.3541 18.4504 33.1277 18.4504 32.7503V31.1278H19.7331V30.411ZM26.4493 30.3354C25.9966 30.3354 25.6947 30.562 25.506 30.8638V30.411H24.7137V34.0331H25.506V31.9957C25.506 31.3921 25.77 31.0525 26.2606 31.0525C26.4115 31.0525 26.6002 31.0903 26.7511 31.1279L26.9775 30.3734C26.8265 30.3356 26.6002 30.3356 26.4493 30.3356V30.3354ZM16.2997 30.7129C15.9223 30.4487 15.3941 30.3356 14.8281 30.3356C13.9227 30.3356 13.3191 30.7883 13.3191 31.5052C13.3191 32.109 13.7718 32.4485 14.5641 32.5617L14.9414 32.5995C15.3565 32.6748 15.5828 32.7881 15.5828 32.9768C15.5828 33.2408 15.281 33.4295 14.7527 33.4295C14.2245 33.4295 13.8094 33.2408 13.5452 33.0522L13.168 33.6559C13.5831 33.9577 14.149 34.1086 14.7149 34.1086C15.7714 34.1086 16.3752 33.6182 16.3752 32.939C16.3752 32.2975 15.8846 31.9579 15.1299 31.8448L14.7527 31.807C14.413 31.7692 14.149 31.6939 14.149 31.4676C14.149 31.2034 14.413 31.0525 14.8281 31.0525C15.281 31.0525 15.7337 31.241 15.9601 31.3543L16.2997 30.7129ZM37.3535 30.3356C36.9007 30.3356 36.5988 30.562 36.4101 30.8638V30.411H35.6178V34.0331H36.4101V31.9957C36.4101 31.3921 36.6743 31.0525 37.1647 31.0525C37.3157 31.0525 37.5044 31.0903 37.6554 31.1279L37.8817 30.3734C37.7308 30.3356 37.5045 30.3356 37.3535 30.3356ZM27.2416 32.2221C27.2416 33.3162 27.9962 34.1086 29.1659 34.1086C29.6941 34.1086 30.0714 33.9955 30.4486 33.6937L30.0714 33.0522C29.7696 33.2786 29.4677 33.3917 29.1281 33.3917C28.4867 33.3917 28.034 32.939 28.034 32.2221C28.034 31.543 28.4867 31.0901 29.1281 31.0525C29.4677 31.0525 29.7696 31.1656 30.0714 31.3921L30.4486 30.7507C30.0714 30.4487 29.6941 30.3356 29.1659 30.3356C27.9962 30.3356 27.2416 31.1279 27.2416 32.2221ZM34.5614 32.2221V30.411H33.7691V30.8638C33.5049 30.5243 33.1277 30.3356 32.6371 30.3356C31.6184 30.3356 30.8261 31.1279 30.8261 32.2221C30.8261 33.3162 31.6184 34.1086 32.6371 34.1086C33.1653 34.1086 33.5427 33.92 33.7691 33.5804V34.0331H34.5614V32.2221ZM31.6561 32.2221C31.6561 31.5807 32.0711 31.0525 32.7502 31.0525C33.3917 31.0525 33.8445 31.543 33.8445 32.2221C33.8445 32.8635 33.3917 33.3917 32.7502 33.3917C32.0711 33.3539 31.6561 32.8635 31.6561 32.2221ZM22.1857 30.3356C21.1292 30.3356 20.3745 31.0901 20.3745 32.2221C20.3745 33.3541 21.1291 34.1086 22.2234 34.1086C22.7516 34.1086 23.2799 33.9577 23.695 33.6182L23.3175 33.0522C23.0157 33.2786 22.6385 33.4295 22.2612 33.4295C21.7707 33.4295 21.2801 33.2032 21.1669 32.5615H23.8459V32.2599C23.8837 31.0901 23.2045 30.3356 22.1856 30.3356H22.1857ZM22.1857 31.0147C22.6761 31.0147 23.0159 31.3167 23.0912 31.8826H21.2047C21.2801 31.3921 21.6198 31.0147 22.1857 31.0147ZM41.8434 32.2221V28.9773H41.0511V30.8638C40.7869 30.5243 40.4097 30.3356 39.9191 30.3356C38.9004 30.3356 38.1081 31.1279 38.1081 32.2221C38.1081 33.3162 38.9004 34.1086 39.9191 34.1086C40.4475 34.1086 40.8247 33.92 41.0511 33.5804V34.0331H41.8434V32.2221ZM38.9382 32.2221C38.9382 31.5807 39.3531 31.0525 40.0324 31.0525C40.6738 31.0525 41.1265 31.543 41.1265 32.2221C41.1265 32.8635 40.6738 33.3917 40.0324 33.3917C39.3531 33.3539 38.9382 32.8635 38.9382 32.2221ZM12.4511 32.2221V30.411H11.6587V30.8638C11.3946 30.5243 11.0173 30.3356 10.5268 30.3356C9.50807 30.3356 8.71573 31.1279 8.71573 32.2221C8.71573 33.3162 9.50807 34.1086 10.5268 34.1086C11.0551 34.1086 11.4324 33.92 11.6587 33.5804V34.0331H12.4511V32.2221ZM9.50807 32.2221C9.50807 31.5807 9.92315 31.0525 10.6022 31.0525C11.2437 31.0525 11.6966 31.543 11.6966 32.2221C11.6966 32.8635 11.2437 33.3917 10.6022 33.3917C9.92315 33.3539 9.50807 32.8635 9.50807 32.2221Z" fill="black"/>
<path d="M16.0356 2.90521H27.9208V24.2609H16.0356V2.90521Z" fill="#FF5F00"/>
<path d="M16.7903 13.5831C16.7903 9.24413 18.8277 5.3955 21.9593 2.9052C19.6579 1.09416 16.7527 0 13.5833 0C6.07458 0 0 6.07458 0 13.5831C0 21.0915 6.07458 27.1662 13.5831 27.1662C16.7525 27.1662 19.6577 26.0721 21.9593 24.2608C18.8277 21.8084 16.7903 17.9221 16.7903 13.5831Z" fill="#EB001B"/>
<path d="M43.9563 13.5831C43.9563 21.0915 37.8818 27.1662 30.3732 27.1662C27.2038 27.1662 24.2986 26.0721 21.9971 24.2608C25.1664 21.7707 27.1662 17.9221 27.1662 13.5831C27.1662 9.24413 25.1286 5.3955 21.9971 2.9052C24.2985 1.09416 27.2038 0 30.3732 0C37.8818 0 43.9565 6.11239 43.9565 13.5831H43.9563Z" fill="#F79E1B"/>
</g>
<defs>
<clipPath id="clip0_1941_11009">
<rect width="44" height="34.2031" fill="white"/>
</clipPath>
</defs>
</svg>
