<svg width="16" height="16" viewBox="0 0 16 16" fill="none" xmlns="http://www.w3.org/2000/svg">
<path opacity="0.4" d="M8.65079 2.07558L10.1351 5.05843C10.2445 5.27454 10.4532 5.42462 10.6939 5.45797L14.0279 5.94355C14.2226 5.97089 14.3994 6.07361 14.5187 6.23036C14.6367 6.3851 14.6874 6.5812 14.6587 6.77397C14.6354 6.93405 14.5601 7.08213 14.4447 7.19552L12.0288 9.53737C11.8521 9.70079 11.7721 9.94291 11.8148 10.1797L12.4096 13.472C12.4729 13.8696 12.2096 14.2444 11.8148 14.3198C11.6521 14.3458 11.4854 14.3185 11.3387 14.2438L8.36473 12.6943C8.14401 12.5829 7.88329 12.5829 7.66257 12.6943L4.6886 14.2438C4.32319 14.4379 3.87043 14.3058 3.66705 13.9456C3.5917 13.8022 3.56503 13.6388 3.5897 13.4794L4.18449 10.1864C4.22717 9.95025 4.14649 9.70679 3.97045 9.54338L1.5546 7.20285C1.2672 6.92538 1.25853 6.46848 1.53526 6.181C1.54126 6.175 1.54793 6.16833 1.5546 6.16166C1.66929 6.04493 1.81999 5.97089 1.98269 5.95155L5.31674 5.4653C5.55679 5.43129 5.7655 5.28254 5.87552 5.0651L7.3065 2.07558C7.43386 1.81945 7.69792 1.66004 7.98464 1.66671H8.074C8.32272 1.69672 8.53943 1.8508 8.65079 2.07558Z" fill="url(#paint0_linear_1744_19235)"/>
<path d="M7.99459 12.6112C7.86546 12.6153 7.73965 12.6499 7.62649 12.712L4.66707 14.2579C4.30496 14.4307 3.87163 14.2966 3.66861 13.9503C3.59339 13.8089 3.5661 13.6468 3.59139 13.488L4.18248 10.2019C4.22242 9.96308 4.14254 9.72021 3.96881 9.55207L1.55188 7.21215C1.26499 6.93126 1.25966 6.47021 1.54056 6.18264C1.54455 6.17864 1.54788 6.1753 1.55188 6.17197C1.66637 6.05854 1.81414 5.98381 1.97323 5.96046L5.31007 5.46939C5.5517 5.4387 5.76138 5.28791 5.86788 5.06906L7.3183 2.04192C7.45609 1.79772 7.72035 1.65226 7.99992 1.66761C7.99459 1.86577 7.99459 12.4765 7.99459 12.6112Z" fill="url(#paint1_linear_1744_19235)"/>
<defs>
<linearGradient id="paint0_linear_1744_19235" x1="14.6666" y1="14.3332" x2="-1.06707" y2="9.53124" gradientUnits="userSpaceOnUse">
<stop stop-color="#FB9400"/>
<stop offset="1" stop-color="#FFAB38"/>
</linearGradient>
<linearGradient id="paint1_linear_1744_19235" x1="7.99992" y1="14.3332" x2="-0.403986" y2="13.0507" gradientUnits="userSpaceOnUse">
<stop stop-color="#FB9400"/>
<stop offset="1" stop-color="#FFAB38"/>
</linearGradient>
</defs>
</svg>
