<svg width="26" height="33" viewBox="0 0 26 33" fill="none" xmlns="http://www.w3.org/2000/svg">
<path d="M19 22.9375C19.8125 22.4375 20.0625 21.0625 20.75 20.3125C21.5 19.625 22.875 19.4375 23.375 18.5625C23.875 17.6875 23.375 16.375 23.625 15.375C23.875 14.4375 24.9375 13.5625 24.9375 12.5C24.9375 11.5 23.8125 10.625 23.5625 9.6875C23.3125 8.6875 23.8125 7.375 23.3125 6.5C22.8125 5.625 21.4375 5.4375 20.75 4.75C20 4 19.8125 2.625 18.9375 2.125C18.0625 1.625 16.75 2.125 15.75 1.875C14.875 1.625 14 0.5 13 0.5C11.9375 0.5 11.0625 1.625 10.125 1.875C9.125 2.125 7.8125 1.625 6.9375 2.125C6.125 2.625 5.875 4 5.1875 4.75C4.4375 5.4375 3.0625 5.625 2.5625 6.5C2.0625 7.375 2.5625 8.6875 2.3125 9.6875C2.0625 10.625 1 11.5 1 12.5C1 13.5625 2.0625 14.4375 2.3125 15.375C2.5625 16.375 2.0625 17.6875 2.5625 18.5625C3.0625 19.375 4.4375 19.625 5.1875 20.3125C5.875 21.0625 6.0625 22.4375 6.9375 22.9375C7.8125 23.4375 9.125 22.9375 10.125 23.1875C11.0625 23.4375 11.9375 24.5 13 24.5C14 24.5 14.875 23.4375 15.8125 23.1875C16.8125 22.9375 18.125 23.4375 19 22.9375ZM12.9375 22.5C12.4375 22.25 11.625 21.5625 10.5625 21.25C9.5 21 8.5 21.1875 7.9375 21.125C7.625 20.6875 7.25 19.6875 6.5 18.9375C5.75 18.1875 4.75 17.8125 4.3125 17.5C4.3125 16.9375 4.5 15.9375 4.25 14.875C3.9375 13.8125 3.25 13.0625 3 12.5625C3.25 12 3.9375 11.25 4.25 10.1875C4.5 9.125 4.3125 8.125 4.3125 7.5625C4.8125 7.25 5.8125 6.875 6.5625 6.125C7.3125 5.375 7.6875 4.375 8 3.875C8.5625 3.875 9.5625 4.0625 10.625 3.8125C11.6875 3.5 12.4375 2.8125 12.9375 2.5625C13.5 2.8125 14.25 3.5 15.3125 3.8125C16.375 4.0625 17.375 3.875 17.9375 3.875C18.25 4.375 18.625 5.375 19.375 6.125C20.125 6.875 21.125 7.25 21.625 7.5625C21.625 8.125 21.4375 9.125 21.6875 10.1875C22 11.25 22.6875 12 22.9375 12.5625C22.6875 13.0625 22 13.8125 21.6875 14.875C21.4375 15.875 21.625 16.875 21.625 17.5C21.125 17.8125 20.125 18.1875 19.375 18.9375C18.625 19.6875 18.25 20.6875 17.9375 21.1875C17.375 21.1875 16.375 21 15.3125 21.25C14.25 21.5625 13.5 22.25 12.9375 22.5ZM18.4375 12.5C18.4375 9.5 15.9375 7 13 7C10 7 7.5 9.5 7.5 12.5C7.5 15.5625 9.9375 18 12.9375 18C15.875 18 18.4375 15.5625 18.4375 12.5ZM13 16C11.0625 16 9.5 14.4375 9.5 12.5C9.5 10.625 11.0625 9 12.9375 9C14.8125 9 16.4375 10.625 16.4375 12.5C16.4375 14.4375 14.875 16 13 16ZM23.3125 23.6875C23.125 23.125 22.5 22.875 22 23.125C21.5 23.3125 21.25 23.875 21.4375 24.375L22.9375 28.25L20 27.8125L18.4375 30.4375L16.875 26.625C16.6875 26.125 16.125 25.875 15.5625 26.0625C15.0625 26.3125 14.8125 26.875 15.0625 27.375L16.625 31.1875C16.9375 32 17.625 32.5 18.5625 32.5C19.375 32.5 20.0625 32.0625 20.4375 31.375L21.0625 30.0625L22.4375 30.375C23.1875 30.5 24 30.25 24.5 29.625C25 29.0625 25.125 28.1875 24.8125 27.5L23.3125 23.6875ZM10.375 26.0625C9.8125 25.875 9.25 26.125 9.0625 26.625L7.5 30.4375L5.9375 27.8125L3 28.25L4.5 24.375C4.6875 23.875 4.4375 23.3125 3.9375 23.125C3.4375 22.875 2.8125 23.125 2.625 23.6875L1.125 27.5C0.8125 28.1875 0.9375 29.0625 1.4375 29.625C1.9375 30.25 2.75 30.5 3.5 30.375L4.875 30.0625L5.5 31.375C5.875 32.0625 6.5625 32.5 7.4375 32.5C8.3125 32.5 9 32 9.3125 31.1875L10.875 27.375C11.125 26.875 10.875 26.3125 10.375 26.0625Z" fill="white"/>
</svg>
