<svg width="25" height="20" viewBox="0 0 25 20" fill="none" xmlns="http://www.w3.org/2000/svg">
<path d="M1.99992 0.742676H7.83325C8.14267 0.742676 8.43942 0.865592 8.65821 1.08438C8.877 1.30318 8.99992 1.59992 8.99992 1.90934V18.2427C8.99992 18.5521 8.877 18.8488 8.65821 19.0676C8.43942 19.2864 8.14267 19.4093 7.83325 19.4093H1.99992C1.6905 19.4093 1.39375 19.2864 1.17496 19.0676C0.956168 18.8488 0.833252 18.5521 0.833252 18.2427V1.90934C0.833252 1.59992 0.956168 1.30318 1.17496 1.08438C1.39375 0.865592 1.6905 0.742676 1.99992 0.742676V0.742676ZM1.99992 13.576V15.9093H4.33325V13.576H1.99992ZM12.4999 4.24268H21.8333C22.4521 4.24268 23.0456 4.48851 23.4832 4.92609C23.9208 5.36368 24.1666 5.95717 24.1666 6.57601V13.576C24.1666 14.1948 23.9208 14.7883 23.4832 15.2259C23.0456 15.6635 22.4521 15.9093 21.8333 15.9093H12.4999C11.8811 15.9093 11.2876 15.6635 10.85 15.2259C10.4124 14.7883 10.1666 14.1948 10.1666 13.576V6.57601C10.1666 5.95717 10.4124 5.36368 10.85 4.92609C11.2876 4.48851 11.8811 4.24268 12.4999 4.24268ZM14.8333 17.076H19.4999C19.8093 17.076 20.1061 17.1989 20.3249 17.4177C20.5437 17.6365 20.6666 17.9333 20.6666 18.2427C20.6666 18.5521 20.5437 18.8488 20.3249 19.0676C20.1061 19.2864 19.8093 19.4093 19.4999 19.4093H14.8333C14.5238 19.4093 14.2271 19.2864 14.0083 19.0676C13.7895 18.8488 13.6666 18.5521 13.6666 18.2427C13.6666 17.9333 13.7895 17.6365 14.0083 17.4177C14.2271 17.1989 14.5238 17.076 14.8333 17.076V17.076Z" fill="#FF981F"/>
</svg>
