<svg width="311" height="123" viewBox="0 0 311 123" fill="none" xmlns="http://www.w3.org/2000/svg">
<path d="M40.0364 36.0826H6.38477V95.1763H21.6249V71.9641H38.3627V58.9404H21.6249V49.1063H40.0364V36.0826ZM96.2635 95.1763H112.561L90.4493 36.0826H73.7996L51.2477 95.1763H67.3688L71.333 85.2536H92.6516L96.2635 95.1763ZM75.5615 73.5588L81.9924 54.422L88.5993 73.5588H75.5615ZM119.798 36.0826L144.465 95.1763H156.357L181.375 36.0826H164.814L150.543 72.0527L136.448 36.0826H119.798ZM261.718 36.0826V95.1763H276.959V72.4957L291.582 95.1763H310.522L292.11 70.9895C294.841 70.458 297.924 69.129 300.215 66.9142C303.122 64.079 304.883 59.6492 304.883 54.5992C304.883 49.9037 303.21 44.7651 299.862 41.3098C295.546 36.7914 289.908 36.0826 285.503 36.0826H261.718ZM276.959 47.9546H279.865C283.213 47.9546 285.768 48.8405 287.178 50.258C288.499 51.4984 289.203 53.4475 289.203 55.2194C289.203 57.0799 288.411 59.029 287.265 60.1808C285.415 61.9528 282.155 62.573 279.865 62.573H276.959V47.9546Z" fill="#A54AFF"/>
<path d="M9.71479 18.4501C9.59651 18.4501 9.49597 18.4145 9.41316 18.3431C9.34219 18.2598 9.30671 18.1587 9.30671 18.0398V7.54725H5.90004C5.78174 7.54725 5.6812 7.51156 5.5984 7.44019C5.52743 7.35691 5.49194 7.25579 5.49194 7.13683V6.38737C5.49194 6.2565 5.52743 6.15539 5.5984 6.08401C5.6812 6.00074 5.78174 5.95911 5.90004 5.95911H14.4522C14.5823 5.95911 14.6828 6.00074 14.7538 6.08401C14.8366 6.15539 14.878 6.2565 14.878 6.38737V7.13683C14.878 7.25579 14.8366 7.35691 14.7538 7.44019C14.6828 7.51156 14.5823 7.54725 14.4522 7.54725H11.0633V18.0398C11.0633 18.1587 11.0218 18.2598 10.9391 18.3431C10.8681 18.4145 10.7675 18.4501 10.6374 18.4501H9.71479ZM28.3646 18.4501C28.2345 18.4501 28.134 18.4145 28.0629 18.3431C27.992 18.2598 27.9565 18.1587 27.9565 18.0398V6.38737C27.9565 6.2565 27.992 6.15539 28.0629 6.08401C28.134 6.00074 28.2345 5.95911 28.3646 5.95911H29.2695C29.3996 5.95911 29.5002 6.00074 29.5711 6.08401C29.654 6.15539 29.6953 6.2565 29.6953 6.38737V11.3124H35.7989V6.38737C35.7989 6.2565 35.8344 6.15539 35.9054 6.08401C35.9882 6.00074 36.0887 5.95911 36.207 5.95911H37.1119C37.2421 5.95911 37.3426 6.00074 37.4136 6.08401C37.4964 6.15539 37.5378 6.2565 37.5378 6.38737V18.0398C37.5378 18.1587 37.4964 18.2598 37.4136 18.3431C37.3426 18.4145 37.2421 18.4501 37.1119 18.4501H36.207C36.0887 18.4501 35.9882 18.4145 35.9054 18.3431C35.8344 18.2598 35.7989 18.1587 35.7989 18.0398V12.9184H29.6953V18.0398C29.6953 18.1587 29.654 18.2598 29.5711 18.3431C29.5002 18.4145 29.3996 18.4501 29.2695 18.4501H28.3646ZM52.1029 18.4501C51.9728 18.4501 51.8722 18.4145 51.8013 18.3431C51.7302 18.2598 51.6948 18.1587 51.6948 18.0398V6.38737C51.6948 6.2565 51.7302 6.15539 51.8013 6.08401C51.8722 6.00074 51.9728 5.95911 52.1029 5.95911H59.4308C59.5609 5.95911 59.6614 6.00074 59.7324 6.08401C59.8034 6.15539 59.8389 6.2565 59.8389 6.38737V7.06545C59.8389 7.19631 59.8034 7.29743 59.7324 7.3688C59.6614 7.44019 59.5609 7.47587 59.4308 7.47587H53.3981V11.3838H59.0405C59.1706 11.3838 59.2711 11.4254 59.3421 11.5087C59.4131 11.5801 59.4486 11.6812 59.4486 11.812V12.4723C59.4486 12.5912 59.4131 12.6923 59.3421 12.7757C59.2711 12.847 59.1706 12.8827 59.0405 12.8827H53.3981V16.9334H59.5728C59.7029 16.9334 59.8034 16.9691 59.8743 17.0404C59.9454 17.1118 59.9809 17.2129 59.9809 17.3438V18.0398C59.9809 18.1587 59.9454 18.2598 59.8743 18.3431C59.8034 18.4145 59.7029 18.4501 59.5728 18.4501H52.1029Z" fill="#212121"/>
<path d="M190.441 57.8979V57.3235C190.441 49.2809 196.188 42.3873 204.119 41.1235C209.291 40.2044 214.694 41.9278 218.487 45.7192L219.866 46.9831L221.13 45.7192C224.923 41.9278 230.325 40.2044 235.498 41.1235C243.428 42.3873 249.29 49.2809 249.29 57.3235V57.8979C249.29 62.7234 247.221 67.3192 243.773 70.5362L222.969 89.9532C222.165 90.7574 221.015 91.1021 219.866 91.1021C218.602 91.1021 217.452 90.7574 216.648 89.9532L195.844 70.5362C192.395 67.3192 190.441 62.7234 190.441 57.8979Z" fill="#C79FFF"/>
<path d="M201.868 61.1022L205.57 65.0625" stroke="#A54AFF" stroke-width="1.25" stroke-miterlimit="10" stroke-linecap="round" stroke-linejoin="round"/>
<path d="M231.859 55.7875L229.353 58.0248L223.339 54.6346C222.695 54.2745 221.915 54.266 221.267 54.6131L212.58 59.3792C212.37 59.4949 212.297 59.7649 212.425 59.9707L213.103 61.0422C213.313 61.3765 213.708 61.5479 214.094 61.4751L220.679 60.0693C221.477 59.8978 222.305 60.1893 222.82 60.8236L229.607 69.1728C230.053 69.7214 229.984 70.5229 229.448 70.9901L228.431 71.873C227.869 72.3616 227.02 72.2888 226.552 71.7101L221.979 66.0869" stroke="#A54AFF" stroke-width="1.25" stroke-miterlimit="10" stroke-linecap="round" stroke-linejoin="round"/>
<path d="M212.485 59.405L209.272 55.809" stroke="#A54AFF" stroke-width="1.25" stroke-miterlimit="10" stroke-linecap="round" stroke-linejoin="round"/>
<path d="M237.946 62.478L235.381 64.7668C235.381 64.7668 234.99 67.8913 232.609 68.9714" stroke="#A54AFF" stroke-width="1.25" stroke-miterlimit="10" stroke-linecap="round" stroke-linejoin="round"/>
<path d="M219.255 68.8171L223.257 73.716C223.716 74.2775 224.544 74.3589 225.106 73.9003L226.02 73.1503C226.573 72.6959 226.659 71.8773 226.209 71.3201L223.622 68.1056" stroke="#A54AFF" stroke-width="1.25" stroke-miterlimit="10" stroke-linecap="round" stroke-linejoin="round"/>
<path d="M217.046 71.9202L219.967 75.4776C220.43 76.039 221.258 76.1205 221.82 75.6533L222.623 74.989C223.176 74.5304 223.253 73.7117 222.798 73.1545L219.654 69.3057" stroke="#A54AFF" stroke-width="1.25" stroke-miterlimit="10" stroke-linecap="round" stroke-linejoin="round"/>
<path d="M216.368 76.789L216.462 76.9004C216.926 77.4533 217.749 77.5262 218.303 77.0633L219.066 76.429C219.62 75.9704 219.697 75.1475 219.242 74.5903L217.05 71.9158" stroke="#A54AFF" stroke-width="1.25" stroke-miterlimit="10" stroke-linecap="round" stroke-linejoin="round"/>
<path d="M208.673 66.5061L207.629 65.2995C207.32 64.9412 206.778 64.9016 206.419 65.2111L205.212 66.2533C204.853 66.5628 204.813 67.1041 205.123 67.4624L206.166 68.669C206.476 69.0273 207.018 69.0668 207.377 68.7574L208.584 67.7151C208.943 67.4056 208.982 66.8643 208.673 66.5061Z" stroke="#A54AFF" stroke-width="1.25" stroke-miterlimit="10" stroke-linecap="round" stroke-linejoin="round"/>
<path d="M210.813 68.9702L209.778 67.7733C209.468 67.4151 208.927 67.3755 208.568 67.685L207.37 68.7188C207.011 69.0283 206.972 69.5696 207.282 69.9279L208.316 71.1247C208.626 71.483 209.168 71.5226 209.527 71.2131L210.724 70.1793C211.083 69.8698 211.123 69.3285 210.813 68.9702Z" stroke="#A54AFF" stroke-width="1.25" stroke-miterlimit="10" stroke-linecap="round" stroke-linejoin="round"/>
<path d="M212.973 71.4591L211.938 70.2622C211.628 69.904 211.086 69.8644 210.728 70.1739L209.53 71.2077C209.171 71.5172 209.132 72.0585 209.442 72.4168L210.476 73.6136C210.786 73.9719 211.328 74.0115 211.686 73.702L212.884 72.6681C213.243 72.3587 213.283 71.8174 212.973 71.4591Z" stroke="#A54AFF" stroke-width="1.25" stroke-miterlimit="10" stroke-linecap="round" stroke-linejoin="round"/>
<path d="M214.09 72.7576L214.811 73.5912C215.119 73.948 215.08 74.492 214.722 74.8002L213.888 75.5203C213.531 75.8285 212.986 75.7887 212.678 75.4319L211.396 73.9496L212.88 72.6692C213.237 72.361 213.782 72.4008 214.09 72.7576Z" stroke="#A54AFF" stroke-width="1.25" stroke-miterlimit="10" stroke-linecap="round" stroke-linejoin="round"/>
</svg>
