<svg width="20" height="28" viewBox="0 0 20 28" fill="none" xmlns="http://www.w3.org/2000/svg">
<path d="M16.9774 3.7319H13.0849C12.3815 3.73414 12.4078 4.78246 13.0849 4.7763H16.9774V5.31222H13.0849C12.3854 5.30606 12.4112 6.35382 13.0849 6.35662H16.9774V6.9043H13.0849C12.3854 6.9043 12.4112 7.9515 13.0849 7.9487H16.9774V8.47062H13.0849C12.4 8.47566 12.4112 9.52398 13.0849 9.52734H16.9774V10.0504H13.0849C12.4 10.0481 12.3972 11.0948 13.0849 11.0948H16.9774V11.6167H13.0849C12.4 11.6189 12.3972 12.6667 13.0849 12.6617H16.9774V13.1965H13.0849C12.4 13.1903 12.3972 14.2369 13.0849 14.2409H16.9774V14.7617H13.0849C12.4 14.7611 12.4112 15.81 13.0849 15.8066H16.9774V25.9757C16.9797 27.5252 19.3333 27.4972 19.3401 25.9757V2.17846C19.3333 1.47062 18.7521 0.575739 17.7956 0.572939H13.0849C12.3815 0.573499 12.4078 1.62182 13.0849 1.61734L16.9774 1.63022V2.15102H13.0849C12.3826 2.14766 12.4089 3.19542 13.0849 3.19598H16.9774V3.7319V3.7319ZM12.8172 21.7605C12.8149 19.9517 10.9401 18.0063 8.70006 19.2663V12.3481L7.25134 0.938059C7.2211 0.636219 6.96518 0.565099 6.79326 0.560059C6.61574 0.565099 6.26014 0.636219 6.2215 0.938059L4.78006 12.3481V19.2663C2.54006 18.0063 0.725658 19.9641 0.725098 21.7465C0.725658 23.3325 1.94646 24.635 3.59846 24.6311C5.26278 24.635 6.46006 23.1751 6.46006 21.7465V14.5601H7.02006V21.7465C7.02006 23.3459 8.25878 24.5297 9.63526 24.6048C9.6123 25.4817 9.89846 26.7328 10.4372 27.2289C11.0689 27.8113 11.8209 27.0665 11.5124 26.4601C11.2145 25.8956 10.9221 25.5613 11.1596 24.3287C12.1519 23.8695 12.8149 22.9029 12.8172 21.7605V21.7605ZM3.6623 23.1835C3.28468 23.1835 2.92253 23.0335 2.65552 22.7665C2.3885 22.4995 2.2385 22.1373 2.2385 21.7597C2.2385 21.3821 2.3885 21.0199 2.65552 20.7529C2.92253 20.4859 3.28468 20.3359 3.6623 20.3359C4.43846 20.3404 5.0707 20.9771 5.0763 21.7605C5.0747 22.1359 4.92549 22.4955 4.66092 22.7618C4.39634 23.0281 4.03763 23.1795 3.6623 23.1835V23.1835ZM8.46206 21.7605C8.46336 21.3848 8.6125 21.0248 8.87721 20.7582C9.14192 20.4916 9.50094 20.3399 9.87662 20.3359C10.2524 20.3393 10.6117 20.4908 10.8765 20.7576C11.1412 21.0243 11.29 21.3847 11.2906 21.7605C11.29 22.1362 11.1412 22.4964 10.8764 22.7629C10.6116 23.0294 10.2523 23.1805 9.87662 23.1835C9.50105 23.1801 9.14194 23.0288 8.87715 22.7625C8.61236 22.4961 8.46322 22.1361 8.46206 21.7605V21.7605Z" fill="#A54AFF"/>
</svg>
