<svg width="27" height="28" viewBox="0 0 27 28" fill="none" xmlns="http://www.w3.org/2000/svg">
<path d="M26.0457 3.70694L26.1875 0.875H21.4717L21.445 2.68231C21.4691 2.71338 21.5036 2.7405 21.5321 2.76981L20.1373 4.74425C18.925 3.95587 17.7507 3.983 17.7507 3.983C17.7507 3.983 17.3741 2.51562 13.5 2.51562C10.6541 2.51562 8.43725 3.36438 6.87712 4.76525L5.46269 2.76281L5.46225 2.76194C5.49331 2.73525 5.52963 2.71031 5.555 2.68231L5.52831 0.875H0.8125L0.95425 3.70694L1.01331 3.70387L0.857562 8.29281C0.7845 9.36469 1.41887 10.2174 1.80344 10.6291C2.02306 10.864 2.32275 11.1239 2.61194 11.2805L2.43125 13.4501C2.40369 13.8464 2.51263 14.2017 2.73706 14.4546C2.94444 14.6886 3.23494 14.8212 3.57662 14.8391L3.58756 14.8396H3.5985C3.81418 14.8487 4.02927 14.8109 4.22894 14.7289V22.8336L4.23375 22.8305C3.22094 23.5869 2.92738 24.8841 2.92738 27.125H24.0726C24.0726 24.8889 23.7795 23.5922 22.7693 22.8349L22.7702 22.8353V14.7289C22.9434 14.7993 23.1333 14.8409 23.3337 14.8409C23.3569 14.8409 23.3796 14.8409 23.4028 14.8396H23.4033L23.4229 14.8391C23.7646 14.8212 24.0551 14.6886 24.2625 14.4546C24.4874 14.2017 24.5959 13.8464 24.5683 13.4562L24.3881 11.2805C24.6777 11.1239 24.9774 10.864 25.1966 10.6295C25.5811 10.2182 26.2155 9.36513 26.142 8.27838L25.9867 3.70694H26.0457V3.70694ZM16.0432 6.54587C16.0432 6.54587 18.2648 10.5941 20.4072 11.1309C20.4072 11.1309 21.4454 11.3186 21.4454 12.9242C21.4454 14.8571 20.0603 15.1913 20.0603 15.1913C20.0516 16.6451 19.0339 18.2486 17.7096 19.4911C16.3792 20.7397 14.7394 21.623 13.5004 21.623C12.2706 21.623 10.6291 20.7524 9.2895 19.5191C7.93587 18.2722 6.88937 16.6561 6.88937 15.1909C6.88937 15.1909 5.55544 14.8566 5.55544 12.9238C5.55544 11.3929 6.56125 11.1304 6.56125 11.1304C10.1667 11.1309 16.0432 6.54587 16.0432 6.54587V6.54587ZM3.66588 14.4034C3.64619 14.4034 3.62694 14.4034 3.60725 14.4021H3.5985C3.06431 14.3745 2.83463 13.9549 2.867 13.4864L3.04637 11.3264L3.04812 11.3269L3.22575 9.34456L2.87706 8.46956L2.65875 10.7962C2.08344 10.4042 1.21763 9.44387 1.29463 8.30812L1.45081 3.70694H1.53088C2.37219 3.70694 4.2775 3.63388 5.10569 3.01525L6.81719 5.43813C6.81894 5.44075 6.81981 5.44381 6.82156 5.446C6.9585 5.57331 7.04031 5.74831 7.0495 5.96138C7.083 6.78045 7.26658 7.58641 7.59112 8.33919C7.73025 8.66556 7.48525 9.23475 6.89331 9.23475C6.84956 9.23475 6.80406 9.23169 6.75638 9.22513C5.75931 9.08819 5.43775 7.74506 5.43775 7.74506L5.06106 7.40994L4.63275 13.6032C4.60169 14.0547 4.17469 14.4034 3.66588 14.4034V14.4034ZM23.6312 26.6875H3.36881C3.43269 23.0379 4.38775 22.3987 9.30263 22.2517L9.727 22.2394V20.4601C11.0251 21.462 12.4159 22.0605 13.5004 22.0605C14.5907 22.0605 15.9802 21.4554 17.2721 20.4431V22.2394L17.6965 22.2517C22.6122 22.3996 23.5673 23.0383 23.6312 26.6875ZM24.3412 10.7966L24.1229 8.47L23.7743 9.345L23.9519 11.3273L23.9527 11.3269L24.1321 13.4868C24.1645 13.9549 23.9348 14.3749 23.4006 14.4025H23.3919C23.3722 14.4038 23.3529 14.4038 23.3333 14.4038C22.8249 14.4038 22.3974 14.0551 22.3664 13.6032L21.9381 7.40994L21.5614 7.74506C21.5614 7.74506 21.2402 9.08775 20.2427 9.22513C20.1974 9.23166 20.1516 9.23488 20.1058 9.23475C19.5139 9.23475 19.2689 8.66556 19.408 8.33919C19.7326 7.58643 19.9162 6.78045 19.9496 5.96138C19.9588 5.74875 20.0411 5.57331 20.1776 5.446C20.1793 5.44381 20.1802 5.44075 20.1819 5.43813L21.8821 3.03144C21.9223 3.05375 21.9687 3.07256 22.0124 3.09313C22.8909 3.63913 24.665 3.70694 25.4682 3.70694H25.5483L25.7045 8.30856C25.7824 9.44387 24.9174 10.4042 24.3412 10.7966" fill="#F54336"/>
</svg>
