<svg width="29" height="28" viewBox="0 0 29 28" fill="none" xmlns="http://www.w3.org/2000/svg">
<g clip-path="url(#clip0_2058_5296)">
<path d="M2.98618 8.36258C2.83014 8.03577 2.77934 7.6686 2.84077 7.3117C2.9022 6.9548 3.07285 6.62574 3.32918 6.36992L4.97885 4.72025C5.23472 4.46436 5.56362 4.29408 5.92028 4.23287C6.27693 4.17165 6.64379 4.2225 6.97035 4.37842L8.69118 2.65758C9.12875 2.22015 9.72213 1.97441 10.3408 1.97441C10.9596 1.97441 11.553 2.22015 11.9905 2.65758L15.291 5.95808C15.7284 6.39565 15.9742 6.98903 15.9742 7.60775C15.9742 8.22646 15.7284 8.81985 15.291 9.25742L13.6402 10.9071L13.5818 10.8487L9.45768 14.9741L9.51602 15.0324L7.86635 16.6821C7.64967 16.8989 7.3924 17.0708 7.10924 17.1881C6.82609 17.3054 6.5226 17.3658 6.2161 17.3658C5.9096 17.3658 5.60611 17.3054 5.32295 17.1881C5.0398 17.0708 4.78253 16.8989 4.56585 16.6821L1.26652 13.3827C1.04975 13.1661 0.877789 12.9088 0.760469 12.6256C0.643148 12.3425 0.582764 12.039 0.582764 11.7325C0.582764 11.426 0.643148 11.1225 0.760469 10.8394C0.877789 10.5562 1.04975 10.2989 1.26652 10.0822L2.98502 8.36258H2.98618ZM11.1062 16.6226L15.2315 12.4984L19.4152 16.6821L15.291 20.8074L11.1073 16.6237L11.1062 16.6226ZM16.9395 22.4559L21.0648 18.3317L23.1275 20.3944C23.6706 20.9421 23.9746 21.6827 23.9731 22.454C23.9715 23.2254 23.6644 23.9647 23.1191 24.5102C22.5737 25.0557 21.8345 25.3629 21.0632 25.3647C20.2919 25.3665 19.5512 25.0627 19.0033 24.5197L16.9407 22.4571L16.9395 22.4559ZM20.2412 4.30725L25.1902 9.25742L20.7113 13.7362C19.9962 14.4514 18.6767 14.2939 17.7655 13.3827L16.1158 11.7319C15.2047 10.8219 15.046 9.50242 15.7623 8.78608L20.24 4.30725H20.2412ZM21.8897 2.65758L22.2432 2.30408C22.9583 1.58775 24.2778 1.74642 25.189 2.65758L26.8387 4.30725C27.7498 5.21842 27.9085 6.53792 27.1922 7.25425L26.8387 7.60775L21.8908 2.65758H21.8897ZM7.04151 20.8074L9.51485 18.3317C9.62317 18.2234 9.75178 18.1374 9.89333 18.0787C10.0349 18.02 10.1866 17.9897 10.3399 17.9897C10.4931 17.9896 10.6448 18.0198 10.7864 18.0783C10.928 18.1369 11.0567 18.2228 11.1651 18.3312C11.2735 18.4395 11.3595 18.5681 11.4182 18.7096C11.4769 18.8512 11.5071 19.0029 11.5072 19.1562C11.5072 19.3094 11.4771 19.4612 11.4185 19.6028C11.3599 19.7444 11.274 19.873 11.1657 19.9814L8.69118 22.4582C8.9099 22.677 9.03277 22.9737 9.03277 23.2831C9.03277 23.5924 8.9099 23.8891 8.69118 24.1079L7.04151 25.7576C6.93316 25.8661 6.80449 25.9521 6.66286 26.0108C6.52123 26.0695 6.36942 26.0998 6.2161 26.0998C6.06278 26.0998 5.91097 26.0695 5.76933 26.0108C5.6277 25.9521 5.49903 25.8661 5.39068 25.7576L3.74102 24.1079C3.5223 23.8891 3.39943 23.5924 3.39943 23.2831C3.39943 22.9737 3.5223 22.677 3.74102 22.4582L5.39068 20.8086C5.49903 20.7001 5.6277 20.6141 5.76933 20.5553C5.91097 20.4966 6.06278 20.4664 6.2161 20.4664C6.36942 20.4664 6.52123 20.4966 6.66286 20.5553C6.80449 20.6141 6.93316 20.7001 7.04151 20.8086V20.8074Z" fill="#F54336"/>
</g>
<defs>
<clipPath id="clip0_2058_5296">
<rect width="28" height="28" fill="white" transform="translate(0.5)"/>
</clipPath>
</defs>
</svg>
