<svg width="380" height="210" viewBox="0 0 380 210" fill="none" xmlns="http://www.w3.org/2000/svg">
<g opacity="0.25">
<g opacity="0.5">
<path d="M-31.0078 164.67C-17.2253 144.973 -0.204897 128.342 16.7241 111.425C18.4085 109.657 16.4073 106.435 14.2082 107.603C-8.59035 119.275 -25.2117 138.149 -38.6866 159.804C-41.6899 164.477 -34.1999 169.256 -31.0078 164.67Z" fill="white"/>
<path d="M-12.0189 197.906C-1.10052 187.314 10.2413 177.039 21.3943 166.677C26.9708 161.495 31.9806 156.054 37.557 150.873C42.9903 145.747 48.5088 141.386 52.3914 134.942C56.8591 127.315 48.5784 121.087 41.7622 122.915C34.6597 124.853 28.7053 129.861 22.7572 134.387C16.1387 139.331 9.99558 144.252 3.98331 150.08C-7.319 160.979 -16.8817 173.282 -25.5517 186.359C-32.4725 196.368 -20.8681 206.423 -12.0189 197.906Z" fill="white"/>
<path d="M-25.205 265.293C-15.38 251.36 -4.20369 239.163 7.44506 226.943C12.7436 221.445 18.276 216.18 23.8082 210.915C29.4827 205.594 38.063 197.828 40.6438 190.322C42.9807 183.561 39.5467 177.78 32.5108 177.799C24.8603 177.9 15.3503 184.248 9.16275 188.961C1.73562 194.812 -5.09206 202.048 -11.3508 209.06C-23.4364 222.426 -33.1447 238.746 -41.6693 254.762C-47.0644 265.001 -32.1547 275.173 -25.205 265.293Z" fill="white"/>
<path d="M42.9175 245.981C50.2532 241.253 57.3999 236.439 64.2662 231.255C70.1228 226.936 74.1476 220.932 76.8036 214.178C78.4766 209.873 75.9723 205.101 71.1176 205.532C68.7848 205.79 65.1036 207.363 64.1979 207.551C58.7635 208.682 56.5284 208.744 51.6295 212.536C44.6655 217.917 38.2684 223.558 31.6305 229.451C21.7681 238.334 31.2169 253.658 42.9175 245.981Z" fill="white"/>
<path d="M97.8822 162.186C108.882 157.17 132.1 145.907 120.093 131.499C110.669 120.031 91.0638 129.954 80.2376 135.997C68.1561 142.661 56.3768 151.24 49.1871 162.949C43.2768 172.624 54.1791 181.674 63.4206 178.713C75.3091 174.926 86.4485 167.364 97.8822 162.186Z" fill="white"/>
<path d="M-29.8373 119.783C-20.6584 109.314 -10.028 100.367 -1.27197 89.5798C0.797024 87.01 -1.56854 82.6319 -4.76327 84.1945C-18.0223 90.9524 -27.5442 102.358 -36.0318 114.485C-39.0725 119.038 -33.5867 124.13 -29.8373 119.783Z" fill="white"/>
<path d="M45.1876 110.147C55.8698 103.131 69.5315 95.7964 77.5847 85.7191C79.9916 82.6683 77.3887 78.2036 73.4771 79.6387C61.2623 83.9652 49.9852 94.6059 39.9105 102.483C34.7057 106.405 39.7471 113.846 45.1876 110.147Z" fill="white"/>
</g>
<g opacity="0.5">
<path d="M411.09 103.812C397.307 123.508 380.287 140.14 363.358 157.057C361.674 158.825 363.675 162.047 365.874 160.879C388.672 149.207 405.294 130.333 418.769 108.678C421.772 104.005 414.282 99.2254 411.09 103.812Z" fill="white"/>
<path d="M392.101 70.5763C381.183 81.1675 369.841 91.443 358.688 101.805C353.111 106.987 348.101 112.428 342.525 117.609C337.092 122.735 331.573 127.096 327.691 133.54C323.223 141.167 331.504 147.395 338.32 145.567C345.422 143.628 351.377 138.621 357.325 134.095C363.943 129.151 370.086 124.23 376.099 118.402C387.401 107.503 396.964 95.1998 405.634 82.1227C412.555 72.1139 400.95 62.0592 392.101 70.5763Z" fill="white"/>
<path d="M405.287 3.18861C395.462 17.1222 384.286 29.3186 372.637 41.5392C367.338 47.0365 361.806 52.3016 356.274 57.5667C350.599 62.888 342.019 70.6537 339.438 78.16C337.101 84.9212 340.535 90.7022 347.571 90.6824C355.222 90.5822 364.732 84.2337 370.919 79.5208C378.346 73.67 385.174 66.4338 391.433 59.4222C403.518 46.0561 413.227 29.7357 421.751 13.7203C427.146 3.48136 412.237 -6.69072 405.287 3.18861Z" fill="white"/>
<path d="M428.453 -51.409C419.398 -46.9976 410.081 -44.3916 401.202 -38.9363C392.896 -33.7004 384.643 -28.8019 380.382 -20.0311C378.151 -16.9564 376.305 -14.1874 375.299 -10.3112C374.033 -4.74793 377.686 -0.428644 382.618 0.862332C386.128 1.74409 389.325 1.15801 392.574 0.234493C402.953 -0.0790945 411.194 -7.51259 419.192 -14.6951C427.674 -22.3796 431.655 -31.5194 437.403 -41.1759C440.907 -46.8002 434.586 -54.3864 428.453 -51.409Z" fill="white"/>
<path d="M337.165 22.5009C329.829 27.2284 322.682 32.0426 315.816 37.2269C309.959 41.5458 305.934 47.5503 303.278 54.3034C301.605 58.6087 304.11 63.3806 308.964 62.9502C311.297 62.6916 314.978 61.119 315.884 60.9305C321.319 59.7997 323.554 59.7379 328.453 55.946C335.417 50.5649 341.814 44.9238 348.452 39.0309C358.314 30.1481 348.865 14.8236 337.165 22.5009Z" fill="white"/>
<path d="M282.2 106.295C271.2 111.312 247.982 122.575 259.989 136.983C269.413 148.451 289.018 138.528 299.844 132.485C311.926 125.82 323.705 117.242 330.895 105.533C336.805 95.8578 325.903 86.8083 316.661 89.7692C304.773 93.5562 293.633 101.118 282.2 106.295Z" fill="white"/>
<path d="M409.919 148.699C400.74 159.168 390.11 168.115 381.354 178.902C379.285 181.472 381.651 185.85 384.845 184.288C398.104 177.53 407.626 166.124 416.114 153.997C419.155 149.444 413.669 144.352 409.919 148.699Z" fill="white"/>
<path d="M334.894 158.335C324.212 165.351 310.551 172.685 302.497 182.763C300.09 185.814 302.693 190.278 306.605 188.843C318.82 184.517 330.097 173.876 340.171 165.999C345.376 162.077 340.335 154.636 334.894 158.335Z" fill="white"/>
<path d="M331.352 -13.6836C325.174 -8.82696 318.897 -3.77557 314.175 2.5802C311.693 5.88267 313.471 11.359 318.108 10.7107C328.003 9.33696 336.477 4.08596 344.154 -2.12522C350.431 -7.17661 359.032 -14.5248 357.251 -22.9952C356.535 -26.1931 352.594 -27.3839 349.67 -26.4369C342.913 -24.3569 336.857 -18.1279 331.352 -13.6836Z" fill="white"/>
<path d="M272.809 30.1095C265.663 33.535 261.954 37.5563 257.345 43.7796C254.549 47.6184 256.666 52.5967 261.458 52.3791C268.98 52.0844 274.503 51.1288 281.178 47.2548C287.709 43.4344 292.132 39.6157 296.878 33.809C300.008 30.002 297.475 24.2439 292.439 24.7075C285.342 25.3117 279.666 26.7911 272.809 30.1095Z" fill="white"/>
</g>
</g>
</svg>
