<svg width="28" height="28" viewBox="0 0 28 28" fill="none" xmlns="http://www.w3.org/2000/svg">
<path fill-rule="evenodd" clip-rule="evenodd" d="M8.55232 2.3335H19.4373C23.404 2.3335 25.6673 4.5735 25.6673 8.55183V19.4485C25.6673 23.4035 23.4157 25.6668 19.449 25.6668H8.55232C4.57398 25.6668 2.33398 23.4035 2.33398 19.4485V8.55183C2.33398 4.5735 4.57398 2.3335 8.55232 2.3335ZM14.9573 14.9685H18.2707C18.8073 14.9568 19.239 14.5252 19.239 13.9885C19.239 13.4518 18.8073 13.0202 18.2707 13.0202H14.9573V9.73016C14.9573 9.1935 14.5257 8.76183 13.989 8.76183C13.4523 8.76183 13.0207 9.1935 13.0207 9.73016V13.0202H9.71898C9.46232 13.0202 9.21732 13.1252 9.03065 13.3002C8.85565 13.4868 8.75065 13.7307 8.75065 13.9885C8.75065 14.5252 9.18232 14.9568 9.71898 14.9685H13.0207V18.2702C13.0207 18.8068 13.4523 19.2385 13.989 19.2385C14.5257 19.2385 14.9573 18.8068 14.9573 18.2702V14.9685Z" fill="#A54AFF"/>
</svg>
