<svg width="32" height="32" viewBox="0 0 32 32" fill="none" xmlns="http://www.w3.org/2000/svg">
<rect width="32" height="32" rx="12" fill="#FAFAFA"/>
<path d="M16.142 9.92473C16.9943 9.33552 17.9831 9.04091 19.0996 9.04091C19.7134 9.04091 20.3867 9.19641 21.1198 9.52375C21.853 9.8429 22.4324 10.2193 22.8587 10.653C23.7367 11.7005 24.1032 12.9198 23.9752 14.311C23.8389 15.7021 23.3617 16.7905 22.5346 17.5597L16.0653 23.7709C15.9033 23.9264 15.6989 24 15.4601 24C15.2213 24 15.0252 23.9264 14.8635 23.7709C14.7848 23.6963 14.7229 23.6069 14.6817 23.5084C14.6408 23.4098 14.6213 23.3042 14.6247 23.198C14.6247 22.9689 14.7015 22.7725 14.8635 22.617L18.7758 18.8609C18.9888 18.6808 18.9888 18.4926 18.7758 18.288C18.5628 18.0835 18.3667 18.0835 18.1792 18.288L14.2666 22.0442C14.1879 22.1205 14.0934 22.1802 13.9892 22.2197C13.885 22.2591 13.7734 22.2774 13.6614 22.2733C13.4229 22.2733 13.2268 22.1997 13.0648 22.0442C12.9861 21.9696 12.9242 21.8803 12.8833 21.7817C12.8421 21.6831 12.8229 21.5775 12.8263 21.4713C12.8263 21.2422 12.9031 21.0458 13.0648 20.8903L16.9774 17.1342C17.2076 16.9296 17.2076 16.725 16.9774 16.5205C16.7813 16.3159 16.5938 16.3159 16.3805 16.5205L12.4682 20.3175C12.3883 20.3926 12.2939 20.4516 12.1899 20.491C12.0857 20.5303 11.9747 20.5493 11.863 20.5466C11.6243 20.5466 11.4199 20.473 11.2409 20.3175C11.0703 20.162 10.985 19.9738 10.985 19.7447C10.985 19.5155 11.0789 19.311 11.2664 19.1309L15.1873 15.3666C15.4003 15.162 15.4003 14.9738 15.1873 14.7938C14.9743 14.6138 14.7696 14.6138 14.5821 14.7938L10.6271 18.5663C10.4396 18.7299 10.2435 18.82 10.0305 18.82C9.79178 18.82 9.58709 18.7381 9.43365 18.5663C9.2719 18.4026 9.18658 18.2062 9.18658 17.9771C9.18658 17.748 9.2719 17.5597 9.43365 17.4043C12.0419 14.8838 13.6531 13.3617 14.2666 12.7971L17.3012 15.6776C17.6335 15.9804 18.0172 16.1359 18.4861 16.1359C19.0827 16.1359 19.5513 15.9067 19.9009 15.4485C20.1396 15.1129 20.2249 14.7447 20.1565 14.3355C20.0884 13.9264 19.9095 13.5827 19.6197 13.2962L16.142 9.92473ZM17.8978 15.1047L14.2666 11.6105L8.23185 17.4043C7.51586 16.7087 7.10677 15.6448 7.01315 14.1964C6.91925 12.7561 7.32835 11.5041 8.23185 10.4566C9.24613 9.49102 10.4565 9 11.863 9C13.2781 9 14.4799 9.49102 15.4601 10.4566L19.0996 13.9509C19.2616 14.1064 19.3383 14.2946 19.3383 14.5237C19.3383 14.7529 19.2616 14.9493 19.0996 15.1047C18.9378 15.252 18.7417 15.3339 18.4861 15.3339C18.2559 15.3339 18.0598 15.252 17.8978 15.1047Z" fill="#D4A9FF"/>
</svg>
