<svg width="25" height="24" viewBox="0 0 25 24" fill="none" xmlns="http://www.w3.org/2000/svg">
<path fill-rule="evenodd" clip-rule="evenodd" d="M19.2713 19.0699C16.2152 22.1263 11.6897 22.7867 7.98637 21.074C7.43966 20.8539 6.99144 20.676 6.56532 20.676C5.37844 20.683 3.90112 21.8339 3.13331 21.067C2.3655 20.2991 3.51721 18.8206 3.51721 17.6266C3.51721 17.2004 3.34637 16.7602 3.12628 16.2124C1.41278 12.5096 2.07406 7.98269 5.13021 4.92721C9.03155 1.02443 15.37 1.02443 19.2713 4.9262C23.1797 8.83501 23.1726 15.1681 19.2713 19.0699Z" stroke="#9E9E9E" stroke-width="1.5" stroke-linecap="round" stroke-linejoin="round"/>
<path d="M16.1393 12.4131H16.1483" stroke="#9E9E9E" stroke-width="2" stroke-linecap="round" stroke-linejoin="round"/>
<path d="M12.1303 12.4131H12.1393" stroke="#9E9E9E" stroke-width="2" stroke-linecap="round" stroke-linejoin="round"/>
<path d="M8.12123 12.4131H8.13023" stroke="#9E9E9E" stroke-width="2" stroke-linecap="round" stroke-linejoin="round"/>
</svg>
