<svg width="83" height="80" viewBox="0 0 83 80" fill="none" xmlns="http://www.w3.org/2000/svg">
<circle cx="42.5" cy="40.5" r="31.5" fill="url(#paint0_linear_1744_21598)"/>
<circle cx="79.5" cy="12.5" r="3.5" fill="url(#paint1_linear_1744_21598)"/>
<circle cx="8.5" cy="4.5" r="4.5" fill="url(#paint2_linear_1744_21598)"/>
<circle cx="4" cy="59" r="2" fill="url(#paint3_linear_1744_21598)"/>
<circle cx="73" cy="71" r="1" fill="url(#paint4_linear_1744_21598)"/>
<path fill-rule="evenodd" clip-rule="evenodd" d="M52.0137 39.5429C52.4654 39.5429 52.8327 39.1757 52.8327 38.7239V35.9408C52.8327 31.7581 50.2218 29.1667 46.0651 29.1667H37.9401C33.7573 29.1667 31.166 31.7581 31.166 35.9441V44.0691C31.166 48.2421 33.7573 50.8334 37.9401 50.8334H46.0683C50.2413 50.8334 52.8327 48.2421 52.8294 44.0658C52.8294 43.6087 52.4578 43.2371 52.0007 43.2371C51.5424 43.2371 51.1719 43.6087 51.1719 44.0658C51.1719 47.3527 49.3617 49.1727 46.0651 49.1727H37.9401C34.6435 49.1727 32.8235 47.3527 32.8235 44.0658V35.9408C32.8235 32.6442 34.6435 30.8242 37.9433 30.8242H46.0683C49.366 30.8242 51.1752 32.6334 51.1752 35.9408V38.6947V38.6968C51.1763 39.154 51.5468 39.5234 52.0039 39.5234V39.5429H52.0137ZM39.6322 41.2412L38.8912 41.9822C38.5608 42.2964 38.5424 42.8174 38.85 43.1544L38.8739 43.1717C39.1902 43.488 39.6994 43.4967 40.0255 43.1912L40.7632 42.4534C41.098 42.1414 41.1164 41.6171 40.8044 41.2813C40.4913 40.9476 39.967 40.9281 39.6322 41.2412ZM45.4037 43.0368C45.0852 43.3542 44.5706 43.3607 44.2445 43.0498L44.2033 43.0097L39.025 37.8325C38.7087 37.4966 38.7022 36.9745 39.0109 36.6321C39.3273 36.3082 39.8451 36.3017 40.169 36.618C40.1723 36.6202 40.1744 36.6224 40.1777 36.6256L42.1981 38.6471L44.0365 36.8076C44.3669 36.4924 44.888 36.4956 45.2152 36.8152C45.2737 36.8737 45.3235 36.9398 45.3614 37.0135C45.5488 37.3395 45.4947 37.749 45.2293 38.0155L43.3984 39.8453L45.3896 41.8375C45.7254 42.155 45.7384 42.6847 45.4199 43.0195C45.4175 43.0232 45.4143 43.0262 45.411 43.0293C45.4085 43.0316 45.406 43.034 45.4037 43.0368Z" fill="#FAFAFA"/>
<circle cx="47" cy="2" r="1" fill="url(#paint5_linear_1744_21598)"/>
<circle cx="27.5" cy="78.5" r="1.5" fill="url(#paint6_linear_1744_21598)"/>
<circle cx="54.5" cy="76.5" r="0.5" fill="url(#paint7_linear_1744_21598)"/>
<circle cx="76" cy="49" r="1" fill="url(#paint8_linear_1744_21598)"/>
<circle cx="0.5" cy="33.5" r="0.5" fill="url(#paint9_linear_1744_21598)"/>
<defs>
<linearGradient id="paint0_linear_1744_21598" x1="74" y1="72" x2="-0.964344" y2="50.2648" gradientUnits="userSpaceOnUse">
<stop stop-color="#FF4D67"/>
<stop offset="1" stop-color="#FF8A9B"/>
</linearGradient>
<linearGradient id="paint1_linear_1744_21598" x1="83" y1="16" x2="74.6706" y2="13.585" gradientUnits="userSpaceOnUse">
<stop stop-color="#FF4D67"/>
<stop offset="1" stop-color="#FF8A9B"/>
</linearGradient>
<linearGradient id="paint2_linear_1744_21598" x1="13" y1="9" x2="2.29081" y2="5.89497" gradientUnits="userSpaceOnUse">
<stop stop-color="#FF4D67"/>
<stop offset="1" stop-color="#FF8A9B"/>
</linearGradient>
<linearGradient id="paint3_linear_1744_21598" x1="6" y1="61" x2="1.24036" y2="59.62" gradientUnits="userSpaceOnUse">
<stop stop-color="#FF4D67"/>
<stop offset="1" stop-color="#FF8A9B"/>
</linearGradient>
<linearGradient id="paint4_linear_1744_21598" x1="74" y1="72" x2="71.6202" y2="71.31" gradientUnits="userSpaceOnUse">
<stop stop-color="#FF4D67"/>
<stop offset="1" stop-color="#FF8A9B"/>
</linearGradient>
<linearGradient id="paint5_linear_1744_21598" x1="48" y1="3" x2="45.6202" y2="2.30999" gradientUnits="userSpaceOnUse">
<stop stop-color="#FF4D67"/>
<stop offset="1" stop-color="#FF8A9B"/>
</linearGradient>
<linearGradient id="paint6_linear_1744_21598" x1="29" y1="80" x2="25.4303" y2="78.965" gradientUnits="userSpaceOnUse">
<stop stop-color="#FF4D67"/>
<stop offset="1" stop-color="#FF8A9B"/>
</linearGradient>
<linearGradient id="paint7_linear_1744_21598" x1="55" y1="77" x2="53.8101" y2="76.655" gradientUnits="userSpaceOnUse">
<stop stop-color="#FF4D67"/>
<stop offset="1" stop-color="#FF8A9B"/>
</linearGradient>
<linearGradient id="paint8_linear_1744_21598" x1="77" y1="50" x2="74.6202" y2="49.31" gradientUnits="userSpaceOnUse">
<stop stop-color="#FF4D67"/>
<stop offset="1" stop-color="#FF8A9B"/>
</linearGradient>
<linearGradient id="paint9_linear_1744_21598" x1="1" y1="34" x2="-0.18991" y2="33.655" gradientUnits="userSpaceOnUse">
<stop stop-color="#FF4D67"/>
<stop offset="1" stop-color="#FF8A9B"/>
</linearGradient>
</defs>
</svg>
