<svg width="21" height="28" viewBox="0 0 21 28" fill="none" xmlns="http://www.w3.org/2000/svg">
<path d="M4.18833 0.770179C6.91833 -1.34149 9.88167 1.23685 10.5467 5.25018C11.0483 5.25018 11.5383 5.39018 11.9817 5.64685C12.5883 4.94685 13.125 3.99018 12.915 2.91685C12.425 0.408512 15.2367 -1.62149 17.9083 1.84351C20.02 4.57351 17.4417 7.53685 13.4167 8.20185C13.4167 8.70351 13.2883 9.20518 13.02 9.64851C13.72 10.2435 14.6767 10.7802 15.75 10.5702C18.235 10.0802 20.2767 12.8802 16.8117 15.5635C14.0817 17.6752 11.1183 15.0968 10.4533 11.0835C9.95167 11.0835 9.46167 10.9318 9.03 10.6752C8.42333 11.3752 7.875 12.3435 8.085 13.4168C8.575 15.9135 5.76333 17.9552 3.09167 14.4902C0.968333 11.7485 3.55833 8.78518 7.58333 8.13185C7.58333 7.63018 7.735 7.14018 7.99167 6.69685C7.29167 6.10185 6.335 5.55351 5.25 5.76351C2.765 6.25351 0.723333 3.45351 4.18833 0.770179V0.770179ZM2.33333 18.6668H4.66667C5.2855 18.6668 5.879 18.9127 6.31658 19.3503C6.75417 19.7878 7 20.3813 7 21.0002V28.0002H4.66667V25.6668H2.33333V28.0002H0V21.0002C0 20.3813 0.245833 19.7878 0.683417 19.3503C1.121 18.9127 1.71449 18.6668 2.33333 18.6668V18.6668ZM2.33333 21.0002V23.3335H4.66667V21.0002H2.33333ZM11.585 18.6668H14L10.5817 28.0002H8.16667L11.585 18.6668ZM17.5 18.6668H21V21.0002H17.5V25.6668H21V28.0002H17.5C16.8812 28.0002 16.2877 27.7543 15.8501 27.3168C15.4125 26.8792 15.1667 26.2857 15.1667 25.6668V21.0002C15.1667 20.3813 15.4125 19.7878 15.8501 19.3503C16.2877 18.9127 16.8812 18.6668 17.5 18.6668V18.6668Z" fill="#4AAF57"/>
</svg>
