<svg width="23" height="18" viewBox="0 0 23 18" fill="none" xmlns="http://www.w3.org/2000/svg">
<path d="M21.2678 14.3789C21.6951 14.1838 22.0573 13.8699 22.3112 13.4748C22.5651 13.0796 22.7001 12.6198 22.7001 12.1501V10.4519C22.7002 9.68058 22.4455 8.93083 21.9756 8.31917C21.5057 7.7075 20.8469 7.26819 20.1016 7.0695L17.1714 6.2883L15.0126 2.4005C14.7095 1.85472 14.2658 1.39997 13.7277 1.0834C13.1896 0.766829 12.5766 0.599961 11.9522 0.600098H7.21885C6.48409 0.600068 5.76796 0.831275 5.17194 1.26095C4.57591 1.69063 4.13023 2.29699 3.89805 2.9941L2.74585 6.4493C2.03634 6.67341 1.41672 7.1178 0.976916 7.71796C0.537114 8.31813 0.30002 9.04284 0.300049 9.7869V12.1501C0.300049 13.1399 0.888049 13.9925 1.73225 14.3789C1.84436 15.198 2.24281 15.951 2.85699 16.5044C3.47117 17.0578 4.26142 17.376 5.08774 17.4025C5.91405 17.429 6.72306 17.1621 7.37144 16.6492C8.01981 16.1362 8.46568 15.4103 8.63005 14.6001H14.3701C14.5344 15.4103 14.9803 16.1362 15.6287 16.6492C16.277 17.1621 17.0861 17.429 17.9124 17.4025C18.7387 17.376 19.5289 17.0578 20.1431 16.5044C20.7573 15.951 21.1557 15.198 21.2678 14.3789V14.3789ZM7.21885 2.0001H8.70005V6.2001H4.30405L5.22525 3.4365C5.36462 3.01805 5.6322 2.65411 5.99004 2.39628C6.34787 2.13846 6.7778 1.99984 7.21885 2.0001V2.0001ZM13.7876 3.0809L15.5223 6.2001H10.1V2.0001H11.9522C12.3268 2.00022 12.6944 2.1005 13.0171 2.29053C13.3399 2.48057 13.6059 2.75345 13.7876 3.0809ZM3.10005 13.9001C3.10005 13.6243 3.15437 13.3512 3.2599 13.0965C3.36544 12.8417 3.52012 12.6102 3.71512 12.4152C3.91013 12.2202 4.14163 12.0655 4.39641 11.96C4.6512 11.8544 4.92427 11.8001 5.20005 11.8001C5.47583 11.8001 5.7489 11.8544 6.00368 11.96C6.25847 12.0655 6.48997 12.2202 6.68497 12.4152C6.87998 12.6102 7.03466 12.8417 7.1402 13.0965C7.24573 13.3512 7.30005 13.6243 7.30005 13.9001C7.30005 14.4571 7.0788 14.9912 6.68497 15.385C6.29115 15.7788 5.757 16.0001 5.20005 16.0001C4.64309 16.0001 4.10895 15.7788 3.71512 15.385C3.3213 14.9912 3.10005 14.4571 3.10005 13.9001V13.9001ZM15.7 13.9001C15.7 13.3431 15.9213 12.809 16.3151 12.4152C16.709 12.0213 17.2431 11.8001 17.8001 11.8001C18.357 11.8001 18.8911 12.0213 19.285 12.4152C19.6788 12.809 19.9001 13.3431 19.9001 13.9001C19.9001 14.4571 19.6788 14.9912 19.285 15.385C18.8911 15.7788 18.357 16.0001 17.8001 16.0001C17.2431 16.0001 16.709 15.7788 16.3151 15.385C15.9213 14.9912 15.7 14.4571 15.7 13.9001Z" fill="#1A96F0"/>
</svg>
