<svg width="298" height="117" viewBox="0 0 298 117" fill="none" xmlns="http://www.w3.org/2000/svg">
<path d="M38.3627 34.1409H6.11768V90.7741H20.7208V68.5283H36.7589V56.0469H20.7208V46.6223H38.3627V34.1409ZM92.2394 90.7741H107.856L86.6683 34.1409H70.7145L49.1053 90.7741H64.5526L68.351 81.2645H88.7785L92.2394 90.7741ZM72.4028 70.0567L78.5648 51.7167L84.8956 70.0567H72.4028ZM114.79 34.1409L138.426 90.7741H149.821L173.794 34.1409H157.925L144.25 68.6132L130.744 34.1409H114.79ZM250.777 34.1409V90.7741H265.381V69.0378L279.393 90.7741H297.541L279.9 67.5944C282.516 67.085 285.47 65.8113 287.666 63.6887C290.451 60.9716 292.139 56.7262 292.139 51.8865C292.139 47.3864 290.536 42.4618 287.328 39.1504C283.192 34.8201 277.79 34.1409 273.569 34.1409H250.777ZM265.381 45.5185H268.166C271.374 45.5185 273.823 46.3676 275.173 47.726C276.439 48.9148 277.114 50.7827 277.114 52.4809C277.114 54.2639 276.355 56.1318 275.257 57.2357C273.484 58.9338 270.361 59.5282 268.166 59.5282H265.381V45.5185Z" fill="#A54AFF"/>
<path d="M212.594 42.9132C215.456 40.887 218.776 39.874 222.525 39.874C224.586 39.874 226.847 40.4087 229.309 41.5343C231.771 42.6318 233.717 43.9261 235.148 45.4176C238.096 49.0195 239.327 53.2124 238.897 57.9962C238.44 62.7801 236.837 66.5226 234.06 69.1678L212.337 90.5261C211.793 91.0608 211.106 91.314 210.304 91.314C209.503 91.314 208.844 91.0608 208.301 90.5261C208.037 90.2697 207.829 89.9624 207.691 89.6234C207.553 89.2845 207.488 88.9212 207.499 88.5563C207.499 87.7684 207.757 87.093 208.301 86.5583L221.438 73.6421C222.153 73.023 222.153 72.3758 221.438 71.6722C220.723 70.9688 220.064 70.9688 219.435 71.6722L206.297 84.5886C206.033 84.8509 205.715 85.0564 205.365 85.1919C205.015 85.3276 204.641 85.3904 204.265 85.3765C203.464 85.3765 202.805 85.1232 202.261 84.5886C201.997 84.3321 201.789 84.0248 201.652 83.6859C201.513 83.3469 201.449 82.9836 201.461 82.6187C201.461 81.8308 201.718 81.1554 202.261 80.6208L215.399 67.7045C216.172 67.001 216.172 66.2975 215.399 65.594C214.741 64.8905 214.111 64.8905 213.395 65.594L200.258 78.651C199.99 78.9093 199.673 79.1121 199.324 79.2475C198.974 79.3828 198.601 79.4479 198.226 79.4389C197.424 79.4389 196.738 79.1857 196.137 78.651C195.564 78.1163 195.278 77.4692 195.278 76.6812C195.278 75.8932 195.593 75.1898 196.223 74.5707L209.388 61.6263C210.104 60.9228 210.104 60.2756 209.388 59.6564C208.673 59.0374 207.986 59.0374 207.356 59.6564L194.076 72.629C193.446 73.1918 192.788 73.5014 192.073 73.5014C191.271 73.5014 190.584 73.2199 190.068 72.629C189.525 72.0663 189.239 71.3909 189.239 70.6029C189.239 69.815 189.525 69.1678 190.068 68.6331C198.827 59.966 204.237 54.732 206.297 52.7903L216.487 62.6956C217.603 63.7367 218.891 64.2715 220.465 64.2715C222.469 64.2715 224.042 63.4835 225.216 61.9077C226.018 60.7539 226.304 59.4876 226.074 58.0806C225.846 56.6736 225.245 55.4917 224.272 54.5068L212.594 42.9132ZM218.49 60.7258L206.297 48.71L186.033 68.6331C183.629 66.2412 182.255 62.583 181.941 57.6023C181.625 52.6496 182.999 48.3442 186.033 44.7422C189.439 41.4217 193.503 39.7333 198.226 39.7333C202.978 39.7333 207.013 41.4217 210.304 44.7422L222.525 56.758C223.069 57.2927 223.327 57.9399 223.327 58.7279C223.327 59.5158 223.069 60.1912 222.525 60.7258C221.982 61.2323 221.324 61.5137 220.465 61.5137C219.692 61.5137 219.034 61.2323 218.49 60.7258Z" fill="#D4A9FF"/>
<path d="M9.30903 17.2425C9.19569 17.2425 9.09935 17.2084 9.02 17.1399C8.952 17.0602 8.918 16.9633 8.918 16.8493V6.79362H5.65373C5.54038 6.79362 5.44404 6.75942 5.3647 6.69102C5.2967 6.61121 5.2627 6.5143 5.2627 6.40029V5.68203C5.2627 5.55662 5.2967 5.45972 5.3647 5.39131C5.44404 5.3115 5.54038 5.27161 5.65373 5.27161H13.8484C13.9731 5.27161 14.0694 5.3115 14.1374 5.39131C14.2167 5.45972 14.2565 5.55662 14.2565 5.68203V6.40029C14.2565 6.5143 14.2167 6.61121 14.1374 6.69102C14.0694 6.75942 13.9731 6.79362 13.8484 6.79362H10.6011V16.8493C10.6011 16.9633 10.5614 17.0602 10.4821 17.1399C10.4141 17.2084 10.3178 17.2425 10.1931 17.2425H9.30903ZM27.1793 17.2425C27.0546 17.2425 26.9583 17.2084 26.8902 17.1399C26.8222 17.0602 26.7882 16.9633 26.7882 16.8493V5.68203C26.7882 5.55662 26.8222 5.45972 26.8902 5.39131C26.9583 5.3115 27.0546 5.27161 27.1793 5.27161H28.0464C28.171 5.27161 28.2674 5.3115 28.3353 5.39131C28.4147 5.45972 28.4543 5.55662 28.4543 5.68203V10.402H34.3028V5.68203C34.3028 5.55662 34.3368 5.45972 34.4048 5.39131C34.4842 5.3115 34.5805 5.27161 34.6939 5.27161H35.5609C35.6856 5.27161 35.7819 5.3115 35.85 5.39131C35.9293 5.45972 35.969 5.55662 35.969 5.68203V16.8493C35.969 16.9633 35.9293 17.0602 35.85 17.1399C35.7819 17.2084 35.6856 17.2425 35.5609 17.2425H34.6939C34.5805 17.2425 34.4842 17.2084 34.4048 17.1399C34.3368 17.0602 34.3028 16.9633 34.3028 16.8493V11.9412H28.4543V16.8493C28.4543 16.9633 28.4147 17.0602 28.3353 17.1399C28.2674 17.2084 28.171 17.2425 28.0464 17.2425H27.1793ZM49.9253 17.2425C49.8006 17.2425 49.7042 17.2084 49.6363 17.1399C49.5682 17.0602 49.5343 16.9633 49.5343 16.8493V5.68203C49.5343 5.55662 49.5682 5.45972 49.6363 5.39131C49.7042 5.3115 49.8006 5.27161 49.9253 5.27161H56.9469C57.0716 5.27161 57.1679 5.3115 57.2358 5.39131C57.3039 5.45972 57.3379 5.55662 57.3379 5.68203V6.33189C57.3379 6.4573 57.3039 6.55421 57.2358 6.62261C57.1679 6.69102 57.0716 6.72522 56.9469 6.72522H51.1663V10.4705H56.5728C56.6975 10.4705 56.7938 10.5103 56.8619 10.5902C56.9299 10.6585 56.9639 10.7554 56.9639 10.8808V11.5136C56.9639 11.6276 56.9299 11.7245 56.8619 11.8044C56.7938 11.8727 56.6975 11.9069 56.5728 11.9069H51.1663V15.7889H57.0829C57.2076 15.7889 57.3039 15.8232 57.3719 15.8915C57.4399 15.96 57.4739 16.0569 57.4739 16.1823V16.8493C57.4739 16.9633 57.4399 17.0602 57.3719 17.1399C57.3039 17.2084 57.2076 17.2425 57.0829 17.2425H49.9253Z" fill="black"/>
</svg>
