<svg width="380" height="300" viewBox="0 0 380 300" fill="none" xmlns="http://www.w3.org/2000/svg">
<path d="M133.125 61.3563C148.063 52.2563 169.394 47.4188 191.613 48.1563C213.8 48.9 235.944 55.175 252.6 67.2625C254.278 68.4792 256.37 68.9796 258.416 68.6538C260.463 68.328 262.296 67.2025 263.513 65.525C264.729 63.8475 265.23 61.7554 264.904 59.7089C264.578 57.6624 263.453 55.8292 261.775 54.6125C242.025 40.2875 216.65 33.3625 192.138 32.5438C167.669 31.725 143.138 36.9625 125 48.0188C124.09 48.5351 123.293 49.229 122.656 50.0593C122.019 50.8896 121.556 51.8394 121.293 52.8523C121.03 53.8652 120.974 54.9205 121.126 55.9557C121.279 56.9908 121.639 57.9847 122.183 58.8784C122.728 59.772 123.446 60.5472 124.296 61.1579C125.145 61.7686 126.109 62.2023 127.13 62.4335C128.15 62.6646 129.207 62.6883 130.237 62.5033C131.267 62.3182 132.249 61.9282 133.125 61.3563ZM198.731 68.7812C197.712 68.6606 196.68 68.7418 195.692 69.0203C194.704 69.2988 193.781 69.7691 192.976 70.4043C192.17 71.0395 191.497 71.8272 190.995 72.7224C190.494 73.6177 190.174 74.6029 190.053 75.6219C189.933 76.6408 190.014 77.6736 190.292 78.6612C190.571 79.6488 191.041 80.5718 191.676 81.3777C192.311 82.1835 193.099 82.8563 193.994 83.3578C194.89 83.8592 195.875 84.1793 196.894 84.3C245.825 90.1125 277.669 127.9 286.994 181.037C287.383 183.048 288.547 184.826 290.234 185.987C291.921 187.149 293.997 187.601 296.014 187.247C298.031 186.893 299.829 185.761 301.02 184.095C302.211 182.428 302.7 180.361 302.381 178.337C292.231 120.494 256.413 75.6312 198.731 68.7812ZM156.844 131.781C132.988 150.875 119.331 192.219 145.438 244.969C146.341 246.823 146.474 248.96 145.808 250.912C145.142 252.864 143.731 254.473 141.882 255.389C140.034 256.305 137.899 256.453 135.942 255.8C133.985 255.148 132.366 253.748 131.438 251.906C102.788 194.025 116.313 144.2 147.081 119.581C162.325 107.381 181.594 101.675 201.031 104.725C220.531 107.787 239.438 119.55 254.225 140.856C254.831 141.698 255.262 142.652 255.496 143.662C255.729 144.672 255.759 145.719 255.583 146.741C255.408 147.763 255.031 148.739 254.474 149.614C253.917 150.489 253.192 151.244 252.34 151.835C251.489 152.427 250.528 152.843 249.514 153.059C248.5 153.276 247.453 153.288 246.434 153.096C245.415 152.903 244.445 152.51 243.579 151.939C242.714 151.368 241.971 150.63 241.394 149.769C228.681 131.456 213.319 122.475 198.606 120.162C183.819 117.838 168.919 122.119 156.844 131.781ZM186.081 257.469C170.088 225.156 165.206 197.844 168.113 179.762C169.55 170.8 172.8 164.681 176.881 161.006C180.825 157.462 186.319 155.494 193.95 156.212C204.094 157.175 208.844 160.512 211.775 164.494C215.163 169.094 216.95 175.556 218.988 184.762L219.6 187.556C223.381 204.956 228.381 227.912 252.638 245.4C254.318 246.612 256.412 247.106 258.457 246.774C260.502 246.443 262.332 245.312 263.544 243.631C264.755 241.95 265.25 239.857 264.918 237.812C264.586 235.766 263.456 233.937 261.775 232.725C242.463 218.8 238.588 201.175 234.738 183.637L234.238 181.387C232.3 172.625 230 162.887 224.356 155.231C218.256 146.95 209.025 141.95 195.425 140.663C184.113 139.588 174.094 142.506 166.444 149.381C158.938 156.131 154.506 165.944 152.681 177.287C149.069 199.819 155.325 230.55 172.081 264.4C173.033 266.198 174.649 267.554 176.586 268.179C178.522 268.805 180.626 268.65 182.45 267.747C184.274 266.845 185.674 265.267 186.352 263.349C187.03 261.43 186.933 259.323 186.081 257.475V257.469ZM113.05 68.275C114.421 69.8283 115.118 71.8624 114.989 73.9298C114.86 75.9973 113.915 77.9289 112.363 79.3C102.388 88.1062 95.6563 96.9688 88.9688 108.594C88.4567 109.483 87.7744 110.263 86.9609 110.888C86.1474 111.514 85.2186 111.973 84.2277 112.24C83.2367 112.507 82.2029 112.575 81.1853 112.443C80.1677 112.31 79.1862 111.978 78.2969 111.466C77.4076 110.953 76.6279 110.271 76.0023 109.458C75.3767 108.644 74.9175 107.715 74.6508 106.724C74.3841 105.733 74.3152 104.7 74.4481 103.682C74.5809 102.665 74.9129 101.683 75.4251 100.794C82.7751 88.025 90.5251 77.7313 102.025 67.5875C103.578 66.217 105.612 65.5196 107.68 65.6485C109.747 65.7774 111.679 66.7222 113.05 68.275ZM266.475 178.494C266.127 176.473 264.999 174.671 263.335 173.474C261.67 172.278 259.601 171.784 257.576 172.099C255.55 172.414 253.729 173.513 252.506 175.158C251.283 176.803 250.756 178.863 251.038 180.894C254.225 201.375 264.819 214.312 277.631 223.537C278.464 224.137 279.407 224.566 280.406 224.801C281.405 225.035 282.441 225.071 283.453 224.906C284.466 224.74 285.436 224.377 286.309 223.837C287.181 223.296 287.938 222.589 288.538 221.756C289.137 220.923 289.566 219.98 289.801 218.981C290.035 217.982 290.071 216.947 289.906 215.934C289.74 214.921 289.377 213.951 288.837 213.079C288.296 212.207 287.589 211.449 286.756 210.85C276.6 203.537 268.894 194.012 266.475 178.494ZM190.988 178.15C192.011 178.073 193.04 178.199 194.015 178.52C194.99 178.841 195.892 179.351 196.67 180.021C197.447 180.691 198.086 181.507 198.548 182.424C199.01 183.34 199.287 184.339 199.363 185.363C201.269 210.831 210.594 232.406 225.575 249.55C226.272 250.319 226.809 251.219 227.154 252.198C227.5 253.176 227.646 254.214 227.586 255.25C227.526 256.286 227.26 257.3 226.804 258.232C226.347 259.164 225.71 259.996 224.928 260.679C224.147 261.362 223.237 261.883 222.252 262.21C221.268 262.538 220.227 262.666 219.193 262.587C218.158 262.508 217.149 262.224 216.225 261.751C215.301 261.277 214.481 260.625 213.813 259.831C196.55 240.081 185.938 215.287 183.781 186.525C183.705 185.502 183.83 184.474 184.151 183.499C184.471 182.525 184.981 181.623 185.65 180.845C186.319 180.067 187.135 179.429 188.051 178.967C188.967 178.504 189.964 178.227 190.988 178.15ZM166.475 86.9C167.421 86.5019 168.279 85.9214 169.001 85.1917C169.722 84.4619 170.293 83.5972 170.681 82.6468C171.068 81.6965 171.264 80.6791 171.259 79.6529C171.253 78.6266 171.045 77.6116 170.647 76.6656C170.249 75.7197 169.668 74.8614 168.939 74.1399C168.209 73.4183 167.344 72.8475 166.394 72.4601C165.443 72.0727 164.426 71.8763 163.4 71.882C162.374 71.8878 161.358 72.0957 160.413 72.4938C104.338 96.075 76.3813 148.831 83.8126 211.85C83.9324 212.869 84.2518 213.854 84.7524 214.75C85.2531 215.645 85.9252 216.434 86.7305 217.069C87.5357 217.705 88.4583 218.176 89.4456 218.455C90.4329 218.735 91.4655 218.817 92.4844 218.697C93.5034 218.577 94.4888 218.258 95.3844 217.757C96.2799 217.256 97.0681 216.584 97.7039 215.779C98.3397 214.974 98.8106 214.051 99.0899 213.064C99.3691 212.077 99.4511 211.044 99.3313 210.025C92.6251 153.15 117.5 107.494 166.475 86.8875V86.9Z" fill="url(#paint0_linear_1744_20833)"/>
<defs>
<linearGradient id="paint0_linear_1744_20833" x1="302.476" y1="268.557" x2="29.655" y2="192.136" gradientUnits="userSpaceOnUse">
<stop stop-color="#7210FF"/>
<stop offset="1" stop-color="#9D59FF"/>
</linearGradient>
</defs>
</svg>
